<?xml version="1.0" encoding="UTF-8" standalone="no"?>
<!-- Created with Inkscape (http://www.inkscape.org/) -->

<svg
   xmlns:dc="http://purl.org/dc/elements/1.1/"
   xmlns:cc="http://creativecommons.org/ns#"
   xmlns:rdf="http://www.w3.org/1999/02/22-rdf-syntax-ns#"
   xmlns:svg="http://www.w3.org/2000/svg"
   xmlns="http://www.w3.org/2000/svg"
   xmlns:sodipodi="http://sodipodi.sourceforge.net/DTD/sodipodi-0.dtd"
   xmlns:inkscape="http://www.inkscape.org/namespaces/inkscape"
   width="297mm"
   height="188mm"
   viewBox="0 0 297 188"
   version="1.1"
   id="svg8"
   inkscape:version="0.92.4 (5da689c313, 2019-01-14)"
   sodipodi:docname="clink_4.svg"
   inkscape:export-filename="D:\ResDev\_Orgs\DevelopersPackages.org\DevPack_web\org.dev-pack.plink\assets\logos\clink4.png"
   inkscape:export-xdpi="247.71001"
   inkscape:export-ydpi="247.71001">
  <defs
     id="defs2" />
  <sodipodi:namedview
     id="base"
     pagecolor="#ffffff"
     bordercolor="#666666"
     borderopacity="1.0"
     inkscape:pageopacity="0.0"
     inkscape:pageshadow="2"
     inkscape:zoom="0.49497475"
     inkscape:cx="759.88896"
     inkscape:cy="-7.2922832"
     inkscape:document-units="mm"
     inkscape:current-layer="layer4"
     showgrid="false"
     inkscape:window-width="1822"
     inkscape:window-height="1051"
     inkscape:window-x="1689"
     inkscape:window-y="-9"
     inkscape:window-maximized="1" />
  <metadata
     id="metadata5">
    <rdf:RDF>
      <cc:Work
         rdf:about="">
        <dc:format>image/svg+xml</dc:format>
        <dc:type
           rdf:resource="http://purl.org/dc/dcmitype/StillImage" />
        <dc:title></dc:title>
      </cc:Work>
    </rdf:RDF>
  </metadata>
  <g
     inkscape:label="cheers"
     inkscape:groupmode="layer"
     id="layer1"
     transform="translate(0,-109)" />
  <g
     inkscape:groupmode="layer"
     id="layer3"
     inkscape:label="lambda"
     style="display:inline"
     transform="translate(0,-22)">
    <path
       inkscape:connector-curvature="0"
       style="display:inline;fill:#c13357;fill-opacity:1;stroke:none;stroke-width:0.26458332px;stroke-linecap:butt;stroke-linejoin:miter;stroke-opacity:1"
       d="M 105.25316,27.941837 C 39.789587,89.84656 26.633943,119.41271 20.397335,140.95736 c -2.480469,7.15793 -3.897584,7.44097 -7.063136,10.18129 l -3.7563617,2.81119 c 0.9685637,5.55152 4.4406527,7.07902 6.5789297,7.79178 l 3.342949,-3.39773 c 3.283666,-3.26004 4.960863,-6.28348 10.819495,-7.46466 C 64.242574,143.50869 93.063408,124.70416 148.90941,75.189176 131.90048,52.793982 123.774,45.328747 105.25316,27.941837 Z m -0.0946,5.083928 c 21.07219,18.237359 21.35596,21.468971 38.74287,41.974281 -14.74107,13.323733 -28.74554,24.474037 -28.74554,24.474037 L 45.702767,98.812629 C 74.485656,59.31395 105.15859,33.025765 105.15859,33.025765 Z"
       id="path842"
       sodipodi:nodetypes="ccccccccccccccc"
       inkscape:export-xdpi="247.71001"
       inkscape:export-ydpi="247.71001" />
    <path
       inkscape:connector-curvature="0"
       id="path837"
       style="font-style:normal;font-variant:normal;font-weight:500;font-stretch:normal;font-size:346.66668701px;line-height:1.25;font-family:'BIZ UDMincho';-inkscape-font-specification:'BIZ UDMincho, Medium';font-variant-ligatures:normal;font-variant-caps:normal;font-variant-numeric:normal;font-feature-settings:normal;text-align:start;letter-spacing:0px;word-spacing:0px;writing-mode:lr-tb;text-anchor:start;display:inline;fill:#c13357;fill-opacity:1;stroke:none;stroke-width:0.28089392"
       d="m 156.32621,108.51983 v -4.5682 q 0,-6.807522 -1.71627,-9.763417 -1.81722,-3.000672 -6.15833,-3.000672 -4.69448,0 -8.73273,6.494004 l -3.43253,-1.925808 q 2.57438,-5.239993 6.25928,-8.375039 3.83635,-3.269421 7.9756,-3.269421 6.05736,0 9.03559,5.643103 1.96865,3.717259 1.96865,9.046819 v 25.304241 q 0,13.92852 1.46385,18.94458 2.12008,7.21059 7.8746,7.21059 6.66314,0 11.76146,-9.00204 l 3.07916,2.59761 q -6.6631,13.6598 -16.7083,13.6598 -6.5117,0 -10.24705,-6.58358 -3.43258,-6.04614 -3.43258,-16.70527 v -13.39108 l -23.87619,34.84369 h -8.98511 z" />
    <path
       inkscape:connector-curvature="0"
       style="display:inline;fill:#c13357;fill-opacity:1;stroke:none;stroke-width:0.26458332px;stroke-linecap:butt;stroke-linejoin:miter;stroke-opacity:1"
       d="m 196.26985,27.412653 c 65.46357,61.90472 78.61921,91.470877 84.85581,113.015527 2.48047,7.15793 3.89758,7.44097 7.06313,10.18129 l 3.75637,2.81119 c -0.96856,5.55152 -4.44066,7.07902 -6.57895,7.79178 l -3.34293,-3.39773 c -3.28366,-3.26004 -4.96085,-6.28348 -10.81949,-7.46466 -33.92336,-7.37054 -62.7442,-26.17507 -118.59018,-75.690054 17.00893,-22.395198 25.13541,-29.860433 43.65624,-47.247343 z m 0.0946,5.083928 c -21.07219,18.237359 -21.35595,21.46897 -38.74285,41.974275 14.74107,13.323733 28.74551,24.47405 28.74551,24.47405 l 69.45314,-0.661464 C 227.03735,58.784759 196.36442,32.496581 196.36442,32.496581 Z"
       id="path842-6"
       sodipodi:nodetypes="ccccccccccccccc"
       inkscape:export-xdpi="247.71001"
       inkscape:export-ydpi="247.71001" />
  </g>
  <g
     inkscape:groupmode="layer"
     id="layer4"
     inkscape:label="ident"
     transform="translate(0,-22)">
    <g
       aria-label="CL Combinator"
       transform="matrix(0.26458333,0,0,0.26458333,-34.621475,20.574335)"
       style="font-style:normal;font-variant:normal;font-weight:normal;font-stretch:normal;font-size:186.66667175px;line-height:1.25;font-family:'Sitka Banner';-inkscape-font-specification:'Sitka Banner, Normal';font-variant-ligatures:normal;font-variant-caps:normal;font-variant-numeric:normal;font-feature-settings:normal;text-align:center;letter-spacing:0px;word-spacing:0px;writing-mode:lr-tb;text-anchor:middle;fill:#c13357;fill-opacity:1;stroke:none"
       id="flowRoot1149">
      <path
         d="m 250.53636,667.43113 v 6.96889 q -3.40148,2.90371 -7.88148,6.0563 -4.48,3.06963 -9.78963,5.72444 -5.22667,2.57185 -11.11704,4.23111 -5.89037,1.74223 -12.02963,1.74223 -12.52741,0 -22.64889,-4.06519 -10.03852,-4.14815 -17.17333,-11.78074 -7.13482,-7.71556 -11.03408,-18.66667 -3.81629,-11.03407 -3.81629,-24.80592 0,-13.27408 4.14815,-24.30815 4.23111,-11.03408 11.61481,-18.91556 7.38371,-7.88148 17.33926,-12.19555 10.03852,-4.39704 21.7363,-4.39704 4.06518,0 8.96,0.58074 4.89481,0.58074 9.78963,1.49333 4.89481,0.91259 9.37481,2.07408 4.48,1.16148 7.79852,2.32296 v 26.46519 h -4.39704 l -5.30963,-14.51852 q -0.41481,-1.5763 -1.3274,-2.32297 -0.9126,-0.74666 -2.07408,-1.41037 -2.65481,-1.49333 -5.97333,-2.82074 -3.31852,-1.32741 -6.96889,-2.32296 -3.65037,-1.07852 -7.3837,-1.65926 -3.65037,-0.58074 -7.05186,-0.58074 -7.3837,0 -13.60592,3.15259 -6.22222,3.06963 -10.70222,9.29185 -4.48,6.22223 -6.96889,15.59704 -2.48889,9.29185 -2.48889,21.7363 0,25.96741 11.03407,38.99259 11.03408,13.02519 31.60889,13.02519 6.80297,0 12.1126,-1.41037 5.30962,-1.49334 9.54074,-3.65037 4.23111,-2.24 7.3837,-4.81186 3.23556,-2.57185 5.80741,-4.81185 z"
         style="font-style:normal;font-variant:normal;font-weight:normal;font-stretch:normal;font-size:186.66667175px;font-family:'Sitka Banner';-inkscape-font-specification:'Sitka Banner, Normal';font-variant-ligatures:normal;font-variant-caps:normal;font-variant-numeric:normal;font-feature-settings:normal;text-align:center;writing-mode:lr-tb;text-anchor:middle;fill:#c13357;fill-opacity:1"
         id="path1192"
         inkscape:connector-curvature="0" />
      <path
         d="m 256.89567,685.84891 10.53629,-2.24 q 1.65926,-0.41481 2.73778,-1.74222 1.16148,-1.32741 1.16148,-3.15259 v -92.25482 q 0,-1.90815 -1.16148,-3.23556 -1.07852,-1.3274 -2.73778,-1.74222 l -10.53629,-2.15704 v -3.89926 h 44.38518 v 3.89926 l -11.03407,2.15704 q -1.65926,0.33185 -2.82074,1.74222 -1.16148,1.41037 -1.16148,3.23556 v 96.9837 h 41.97926 q 0.82963,0 1.41037,-0.41481 0.6637,-0.49778 1.07852,-1.16148 0.41481,-0.74667 0.6637,-1.49334 0.24889,-0.74666 0.41481,-1.3274 l 6.30519,-21.90223 h 4.39704 v 32.60445 h -85.61778 z"
         style="font-style:normal;font-variant:normal;font-weight:normal;font-stretch:normal;font-size:186.66667175px;font-family:'Sitka Banner';-inkscape-font-specification:'Sitka Banner, Normal';font-variant-ligatures:normal;font-variant-caps:normal;font-variant-numeric:normal;font-feature-settings:normal;text-align:center;writing-mode:lr-tb;text-anchor:middle;fill:#c13357;fill-opacity:1"
         id="path1194"
         inkscape:connector-curvature="0" />
      <path
         d="m 486.42178,667.43113 v 6.96889 q -3.40148,2.90371 -7.88148,6.0563 -4.48,3.06963 -9.78963,5.72444 -5.22667,2.57185 -11.11704,4.23111 -5.89037,1.74223 -12.02963,1.74223 -12.5274,0 -22.64889,-4.06519 -10.03851,-4.14815 -17.17333,-11.78074 -7.13481,-7.71556 -11.03407,-18.66667 -3.8163,-11.03407 -3.8163,-24.80592 0,-13.27408 4.14815,-24.30815 4.23111,-11.03408 11.61481,-18.91556 7.38371,-7.88148 17.33926,-12.19555 10.03852,-4.39704 21.7363,-4.39704 4.06519,0 8.96,0.58074 4.89481,0.58074 9.78963,1.49333 4.89481,0.91259 9.37481,2.07408 4.48001,1.16148 7.79852,2.32296 v 26.46519 h -4.39703 l -5.30963,-14.51852 q -0.41482,-1.5763 -1.32741,-2.32297 -0.91259,-0.74666 -2.07407,-1.41037 -2.65482,-1.49333 -5.97334,-2.82074 -3.31852,-1.32741 -6.96889,-2.32296 -3.65037,-1.07852 -7.3837,-1.65926 -3.65037,-0.58074 -7.05185,-0.58074 -7.38371,0 -13.60593,3.15259 -6.22222,3.06963 -10.70222,9.29185 -4.48,6.22223 -6.96889,15.59704 -2.48889,9.29185 -2.48889,21.7363 0,25.96741 11.03407,38.99259 11.03408,13.02519 31.60889,13.02519 6.80297,0 12.1126,-1.41037 5.30963,-1.49334 9.54074,-3.65037 4.23111,-2.24 7.3837,-4.81186 3.23556,-2.57185 5.80741,-4.81185 z"
         style="font-style:normal;font-variant:normal;font-weight:normal;font-stretch:normal;font-size:186.66667175px;font-family:'Sitka Banner';-inkscape-font-specification:'Sitka Banner, Normal';font-variant-ligatures:normal;font-variant-caps:normal;font-variant-numeric:normal;font-feature-settings:normal;text-align:center;writing-mode:lr-tb;text-anchor:middle;fill:#c13357;fill-opacity:1"
         id="path1196"
         inkscape:connector-curvature="0" />
      <path
         d="m 531.19293,691.98817 q -8.71111,0 -15.76296,-2.98667 -6.96889,-2.98666 -11.94667,-8.54518 -4.89481,-5.55852 -7.54963,-13.35704 -2.65481,-7.79852 -2.65481,-17.42222 0,-8.87704 2.65481,-16.5926 2.65482,-7.79851 7.6326,-13.60592 4.97777,-5.80741 12.11259,-9.12593 7.21778,-3.31852 16.3437,-3.31852 9.78963,0 16.92445,3.56741 7.13481,3.48445 11.78074,9.37482 4.64593,5.8074 6.88593,13.52296 2.32296,7.63259 2.32296,15.84593 0,8.79407 -2.65482,16.59259 -2.57185,7.71555 -7.54963,13.52296 -4.97777,5.80741 -12.19555,9.20889 -7.13482,3.31852 -16.34371,3.31852 z m 1.16148,-5.47556 q 6.63704,0 10.95112,-3.40148 4.31407,-3.48444 6.80296,-8.71111 2.57185,-5.30963 3.56741,-11.53185 0.99555,-6.22222 0.99555,-11.8637 0,-6.88593 -1.3274,-13.77186 -1.24445,-6.88592 -4.06519,-12.36148 -2.82074,-5.55852 -7.3837,-8.96 -4.56297,-3.48444 -11.03408,-3.48444 -4.39704,0 -7.71555,1.57629 -3.31852,1.5763 -5.80741,4.31408 -2.48889,2.65481 -4.14815,6.22222 -1.65926,3.48444 -2.73778,7.46667 -0.99555,3.89926 -1.41037,7.96444 -0.41481,4.06519 -0.41481,7.79852 0,4.14815 0.41481,8.62815 0.49778,4.48 1.5763,8.79407 1.16148,4.23111 2.9037,8.13037 1.82519,3.89926 4.48,6.80297 2.65482,2.9037 6.13926,4.64592 3.56741,1.74222 8.21333,1.74222 z"
         style="font-style:normal;font-variant:normal;font-weight:normal;font-stretch:normal;font-size:186.66667175px;font-family:'Sitka Banner';-inkscape-font-specification:'Sitka Banner, Normal';font-variant-ligatures:normal;font-variant-caps:normal;font-variant-numeric:normal;font-feature-settings:normal;text-align:center;writing-mode:lr-tb;text-anchor:middle;fill:#c13357;fill-opacity:1"
         id="path1198"
         inkscape:connector-curvature="0" />
      <path
         d="m 577.92765,686.18076 9.04297,-2.07407 q 1.65926,-0.41482 2.57185,-1.74222 0.99556,-1.32741 0.99556,-3.1526 v -54.67259 q 0,-2.15704 -1.07852,-3.56741 -1.07852,-1.41037 -3.89926,-2.40592 l -7.6326,-2.73778 v -2.24 l 26.13334,-5.89037 v 13.44 0 q 2.9037,-4.06519 5.80741,-6.72 2.98666,-2.73778 6.05629,-4.31408 3.1526,-1.65926 6.47111,-2.32296 3.31852,-0.74667 7.05186,-0.74667 3.98222,0 7.63259,0.9126 3.65037,0.82963 6.72,2.73777 3.06963,1.90815 5.30963,4.89482 2.32296,2.9037 3.56741,7.05185 3.89926,-5.55852 7.46666,-8.62815 3.65037,-3.15259 6.96889,-4.64592 3.40148,-1.5763 6.55408,-1.90815 3.15259,-0.41482 6.05629,-0.41482 5.22667,0 9.78963,1.65926 4.56297,1.5763 7.88148,5.06074 3.40149,3.40149 5.30963,8.87704 1.99112,5.39259 1.99112,12.94222 v 43.80445 q 0,1.82518 0.99555,2.98667 1.07852,1.16148 2.73778,1.57629 l 7.96444,2.07408 v 3.73333 h -38.24592 v -3.56741 l 9.04296,-2.07407 q 1.65926,-0.41482 2.57185,-1.74222 0.99556,-1.32741 0.99556,-3.1526 v -38.41185 q 0,-5.55852 -0.66371,-10.03852 -0.58074,-4.56296 -2.40592,-7.71555 -1.74222,-3.23556 -5.14371,-4.97778 -3.31851,-1.74222 -8.79407,-1.74222 -2.32296,0 -4.97778,0.49777 -2.57185,0.49778 -5.1437,1.5763 -2.57185,0.99556 -4.97778,2.73778 -2.32296,1.65926 -4.06519,4.06518 v 54.17482 q 0,1.90815 0.99556,3.06963 1.07852,1.07852 2.73778,1.49333 l 7.96444,2.07408 v 3.73333 h -38.24592 v -3.56741 l 9.04296,-2.07407 q 1.65926,-0.41482 2.57185,-1.65926 0.99556,-1.24445 0.99556,-3.06963 v -38.57778 q 0,-5.55852 -0.66371,-10.03852 -0.58074,-4.56296 -2.40592,-7.71555 -1.82519,-3.23556 -5.22667,-4.97778 -3.31852,-1.74222 -8.87704,-1.74222 -2.40592,0 -5.06074,0.49777 -2.57185,0.49778 -5.1437,1.5763 -2.48889,0.99556 -4.81185,2.65481 -2.24,1.65926 -3.98223,3.98223 v 54.17481 q -0.16592,1.90815 0.9126,3.1526 1.16148,1.16148 2.82074,1.57629 l 7.96444,2.07408 v 3.73333 h -38.24593 z"
         style="font-style:normal;font-variant:normal;font-weight:normal;font-stretch:normal;font-size:186.66667175px;font-family:'Sitka Banner';-inkscape-font-specification:'Sitka Banner, Normal';font-variant-ligatures:normal;font-variant-caps:normal;font-variant-numeric:normal;font-feature-settings:normal;text-align:center;writing-mode:lr-tb;text-anchor:middle;fill:#c13357;fill-opacity:1"
         id="path1200"
         inkscape:connector-curvature="0" />
      <path
         d="m 730.98105,581.89632 q 0,-2.15704 -1.16148,-3.65038 -1.16148,-1.49333 -3.98222,-2.48888 l -7.63259,-2.73778 v -2.24 l 26.71407,-6.38815 v 52.43259 4.14815 q 3.31852,-4.81185 6.96889,-7.63259 3.65037,-2.82074 7.05185,-4.14815 3.48445,-1.41037 6.47112,-1.74222 3.06963,-0.41482 5.1437,-0.41482 7.46667,0 13.27407,2.90371 5.89037,2.9037 9.95556,8.13037 4.06518,5.22666 6.22222,12.52741 2.15704,7.21777 2.15704,15.84592 0,9.54074 -2.65482,17.83704 -2.65481,8.2963 -7.79851,14.51852 -5.06075,6.13926 -12.44445,9.70667 -7.30074,3.48444 -16.67556,3.48444 -3.48444,0 -7.30074,-0.33185 -3.81629,-0.24889 -7.79852,-1.07852 -3.98222,-0.82963 -8.13037,-2.24 -4.14814,-1.49333 -8.37926,-3.8163 z m 13.93778,97.14963 q 1.07852,1.16148 3.06963,2.48889 1.99111,1.24444 4.31408,2.40592 2.40592,1.07852 4.81185,1.82519 2.40592,0.6637 4.39704,0.6637 6.72,0 11.61481,-2.82074 4.97778,-2.9037 8.13037,-7.63259 3.23556,-4.81185 4.72889,-10.95111 1.5763,-6.13926 1.5763,-12.69334 0,-7.79852 -1.49334,-14.35259 -1.41037,-6.63704 -4.48,-11.44889 -2.98666,-4.81185 -7.71555,-7.46667 -4.64593,-2.73777 -11.11704,-2.73777 -1.90815,0 -4.31407,0.41481 -2.32297,0.41482 -4.81186,1.41037 -2.40592,0.99556 -4.72888,2.73778 -2.24,1.74222 -3.98223,4.31407 z"
         style="font-style:normal;font-variant:normal;font-weight:normal;font-stretch:normal;font-size:186.66667175px;font-family:'Sitka Banner';-inkscape-font-specification:'Sitka Banner, Normal';font-variant-ligatures:normal;font-variant-caps:normal;font-variant-numeric:normal;font-feature-settings:normal;text-align:center;writing-mode:lr-tb;text-anchor:middle;fill:#c13357;fill-opacity:1"
         id="path1202"
         inkscape:connector-curvature="0" />
      <path
         d="m 828.83395,588.11854 q -2.07408,0 -3.89926,-0.74667 -1.82519,-0.82963 -3.1526,-2.15704 -1.3274,-1.3274 -2.15703,-3.15259 -0.74667,-1.82518 -0.74667,-3.98222 0,-2.07408 0.74667,-3.89926 0.82963,-1.82519 2.15703,-3.15259 1.32741,-1.32741 3.1526,-2.07408 1.82518,-0.82963 3.89926,-0.82963 2.07407,0 3.89926,0.82963 1.90814,0.74667 3.31851,2.07408 1.41037,1.3274 2.15704,3.15259 0.82963,1.82518 0.82963,3.89926 0,2.15704 -0.82963,3.98222 -0.74667,1.82519 -2.15704,3.15259 -1.41037,1.32741 -3.31851,2.15704 -1.82519,0.74667 -3.89926,0.74667 z m -19.16445,97.8963 9.37482,-2.07408 q 1.65926,-0.41481 2.65481,-1.65926 1.07852,-1.24444 1.07852,-3.06963 v -54.67259 q 0,-2.15704 -1.16148,-3.65037 -1.16148,-1.49333 -3.98222,-2.48889 l -7.6326,-2.73778 v -2.24 l 26.71408,-5.72444 v 71.51407 q 0,1.90815 0.99555,3.1526 1.07852,1.16148 2.73778,1.57629 l 8.62815,2.07408 v 3.73333 H 809.6695 Z"
         style="font-style:normal;font-variant:normal;font-weight:normal;font-stretch:normal;font-size:186.66667175px;font-family:'Sitka Banner';-inkscape-font-specification:'Sitka Banner, Normal';font-variant-ligatures:normal;font-variant-caps:normal;font-variant-numeric:normal;font-feature-settings:normal;text-align:center;writing-mode:lr-tb;text-anchor:middle;fill:#c13357;fill-opacity:1"
         id="path1204"
         inkscape:connector-curvature="0" />
      <path
         d="m 854.48048,686.01484 9.04296,-2.07408 q 1.65926,-0.41481 2.65482,-1.65926 1.07852,-1.24444 1.07852,-3.06963 v -54.67259 q 0,-2.15704 -1.16149,-3.65037 -1.16148,-1.49333 -3.98222,-2.48889 l -7.63259,-2.73778 v -2.24 l 26.29926,-5.72444 v 13.44 0 q 3.15259,-4.39704 6.30518,-7.13482 3.23556,-2.82074 6.47112,-4.31407 3.23555,-1.5763 6.55407,-2.07408 3.31852,-0.58074 6.72,-0.58074 5.39259,0 10.12148,1.65926 4.72889,1.5763 8.21334,5.06074 3.48444,3.40149 5.47555,8.87704 1.99111,5.39259 1.99111,12.94222 v 43.30667 q 0,2.07408 1.07852,3.40148 1.16148,1.24445 2.65482,1.65926 l 7.96444,2.07408 v 3.73333 h -38.32889 v -3.73333 l 9.12593,-2.07408 q 1.57629,-0.41481 2.57185,-1.65926 0.99555,-1.3274 0.99555,-3.40148 v -38.08 q 0,-5.55852 -0.6637,-10.03852 -0.58074,-4.56296 -2.57185,-7.71555 -1.90815,-3.23556 -5.39259,-4.97778 -3.48445,-1.74222 -9.20889,-1.74222 -2.48889,0 -5.22667,0.49777 -2.65482,0.49778 -5.30963,1.5763 -2.57185,0.99556 -4.97778,2.65481 -2.32296,1.65926 -4.14815,3.98223 v 54.17481 q 0,1.90815 0.99556,3.1526 1.07852,1.16148 2.73778,1.57629 l 7.96444,2.07408 v 3.73333 h -38.41185 z"
         style="font-style:normal;font-variant:normal;font-weight:normal;font-stretch:normal;font-size:186.66667175px;font-family:'Sitka Banner';-inkscape-font-specification:'Sitka Banner, Normal';font-variant-ligatures:normal;font-variant-caps:normal;font-variant-numeric:normal;font-feature-settings:normal;text-align:center;writing-mode:lr-tb;text-anchor:middle;fill:#c13357;fill-opacity:1"
         id="path1206"
         inkscape:connector-curvature="0" />
      <path
         d="m 998.50192,677.88447 q -2.90371,4.39703 -6.38815,7.05185 -3.40148,2.65481 -6.96889,4.14815 -3.48445,1.41037 -6.96889,1.82518 -3.40148,0.49778 -6.30519,0.49778 -4.72889,0 -8.62815,-1.74222 -3.81629,-1.74223 -6.63703,-4.64593 -2.73778,-2.9037 -4.31408,-6.80296 -1.49333,-3.89926 -1.49333,-8.21334 0,-5.06074 1.74222,-9.04296 1.82519,-3.98222 4.81185,-6.96889 3.06963,-3.06963 6.96889,-5.1437 3.89926,-2.15704 8.04741,-3.48445 4.14815,-1.3274 8.2963,-1.90814 4.14815,-0.66371 7.71555,-0.66371 0.74667,0 2.15704,0.16593 1.41037,0.083 2.9037,0.24889 1.5763,0.083 2.98667,0.16592 1.49333,0.083 2.32296,0.083 l 0.083,-14.93334 q 0,-3.98222 -0.74667,-6.63704 -0.6637,-2.65481 -2.15704,-4.14814 -1.41037,-1.5763 -3.65037,-2.15704 -2.24,-0.6637 -5.39259,-0.6637 -4.06519,0 -7.96444,1.41037 -3.8163,1.3274 -7.21778,3.31851 -3.40148,1.99112 -6.30519,4.23112 -2.9037,2.15703 -4.97778,3.73333 h -1.82518 l -2.57185,-13.10815 q 2.40592,-1.32741 5.30963,-2.65481 2.98666,-1.41037 6.38815,-2.40593 3.40148,-1.07852 7.21777,-1.74222 3.89926,-0.66371 8.13037,-0.66371 5.06074,0 10.37037,1.41037 5.30963,1.32741 9.6237,4.39704 4.3141,3.06963 6.9689,8.13037 2.7377,5.06074 2.6548,12.36148 l -0.4978,43.4726 q 0,1.24444 0.4148,2.24 0.4148,0.91259 1.2445,1.65926 0.9126,0.6637 2.157,1.07852 1.3274,0.33185 3.0696,0.33185 0.4148,0 1.3274,-0.16593 0.9126,-0.16592 1.9911,-0.33185 1.1615,-0.24889 2.24,-0.49778 1.1615,-0.33185 1.9912,-0.58074 h 0.8296 v 3.98222 q -1.1615,0.9126 -3.0696,2.15704 -1.8252,1.16148 -4.0652,2.24 -2.1571,0.99556 -4.563,1.74222 -2.323,0.74667 -4.48,0.74667 -3.1526,0 -5.5585,-0.6637 -2.4059,-0.66371 -4.0652,-2.15704 -1.5763,-1.5763 -2.40589,-4.14815 -0.74666,-2.65481 -0.74666,-6.55407 z m 0.24888,-30.19852 q -7.54963,0 -13.68889,1.07852 -6.05629,1.07851 -10.37037,3.40148 -4.23111,2.32296 -6.55407,5.97333 -2.32296,3.65037 -2.32296,8.71111 0,4.31408 1.24444,7.30074 1.32741,2.90371 3.31852,4.72889 2.07407,1.82519 4.56296,2.65482 2.57185,0.74666 4.97778,0.74666 2.32296,0 4.89482,-0.49777 2.65481,-0.49778 5.1437,-1.49334 2.48889,-1.07852 4.72889,-2.73778 2.24,-1.65926 3.8163,-3.98222 z"
         style="font-style:normal;font-variant:normal;font-weight:normal;font-stretch:normal;font-size:186.66667175px;font-family:'Sitka Banner';-inkscape-font-specification:'Sitka Banner, Normal';font-variant-ligatures:normal;font-variant-caps:normal;font-variant-numeric:normal;font-feature-settings:normal;text-align:center;writing-mode:lr-tb;text-anchor:middle;fill:#c13357;fill-opacity:1"
         id="path1208"
         inkscape:connector-curvature="0" />
      <path
         d="m 1039.519,616.49187 h -12.9422 v -4.06518 q 3.2355,-0.82963 5.8074,-1.49334 2.5718,-0.74666 4.397,-1.99111 1.9082,-1.24444 2.9867,-3.40148 1.0785,-2.15704 1.3274,-5.89037 l 0.5807,-10.20444 11.7808,-2.48889 v 22.89777 h 28.3733 l -2.4059,6.63704 h -25.9674 v 56.66371 q 0,2.48889 1.6592,4.23111 1.6593,1.65926 3.9823,2.82074 2.4059,1.07852 4.9777,1.5763 2.6549,0.49777 4.646,0.49777 1.3274,0 2.9866,-0.24889 1.6593,-0.33185 3.2356,-0.6637 1.5763,-0.41481 2.8207,-0.82963 1.3274,-0.49778 1.9911,-0.82963 h 0.8297 v 4.39704 q -1.1615,0.74667 -3.2356,1.99111 -1.9911,1.16148 -4.7289,2.32296 -2.6548,1.16148 -5.9733,1.99111 -3.2356,0.82963 -6.8859,0.82963 -4.3971,0 -8.1304,-1.07852 -3.6504,-1.07851 -6.3882,-3.06962 -2.6548,-2.07408 -4.2311,-5.06075 -1.4933,-3.06963 -1.4933,-7.05185 z"
         style="font-style:normal;font-variant:normal;font-weight:normal;font-stretch:normal;font-size:186.66667175px;font-family:'Sitka Banner';-inkscape-font-specification:'Sitka Banner, Normal';font-variant-ligatures:normal;font-variant-caps:normal;font-variant-numeric:normal;font-feature-settings:normal;text-align:center;writing-mode:lr-tb;text-anchor:middle;fill:#c13357;fill-opacity:1"
         id="path1210"
         inkscape:connector-curvature="0" />
      <path
         d="m 1122.9117,691.98817 q -8.7111,0 -15.763,-2.98667 -6.9689,-2.98666 -11.9466,-8.54518 -4.8949,-5.55852 -7.5497,-13.35704 -2.6548,-7.79852 -2.6548,-17.42222 0,-8.87704 2.6548,-16.5926 2.6548,-7.79851 7.6326,-13.60592 4.9778,-5.80741 12.1126,-9.12593 7.2178,-3.31852 16.3437,-3.31852 9.7896,0 16.9245,3.56741 7.1348,3.48445 11.7807,9.37482 4.6459,5.8074 6.8859,13.52296 2.323,7.63259 2.323,15.84593 0,8.79407 -2.6548,16.59259 -2.5719,7.71555 -7.5497,13.52296 -4.9777,5.80741 -12.1955,9.20889 -7.1348,3.31852 -16.3437,3.31852 z m 1.1615,-5.47556 q 6.637,0 10.9511,-3.40148 4.3141,-3.48444 6.8029,-8.71111 2.5719,-5.30963 3.5674,-11.53185 0.9956,-6.22222 0.9956,-11.8637 0,-6.88593 -1.3274,-13.77186 -1.2444,-6.88592 -4.0652,-12.36148 -2.8207,-5.55852 -7.3837,-8.96 -4.563,-3.48444 -11.0341,-3.48444 -4.397,0 -7.7155,1.57629 -3.3185,1.5763 -5.8074,4.31408 -2.4889,2.65481 -4.1482,6.22222 -1.6592,3.48444 -2.7378,7.46667 -0.9955,3.89926 -1.4103,7.96444 -0.4148,4.06519 -0.4148,7.79852 0,4.14815 0.4148,8.62815 0.4977,4.48 1.5763,8.79407 1.1614,4.23111 2.9037,8.13037 1.8252,3.89926 4.48,6.80297 2.6548,2.9037 6.1392,4.64592 3.5674,1.74222 8.2134,1.74222 z"
         style="font-style:normal;font-variant:normal;font-weight:normal;font-stretch:normal;font-size:186.66667175px;font-family:'Sitka Banner';-inkscape-font-specification:'Sitka Banner, Normal';font-variant-ligatures:normal;font-variant-caps:normal;font-variant-numeric:normal;font-feature-settings:normal;text-align:center;writing-mode:lr-tb;text-anchor:middle;fill:#c13357;fill-opacity:1"
         id="path1212"
         inkscape:connector-curvature="0" />
      <path
         d="m 1169.3146,686.01484 9.2088,-2.07408 q 1.6593,-0.41481 2.6549,-1.65926 1.0785,-1.24444 1.0785,-3.06963 v -54.50666 q 0,-2.15704 -1.1615,-3.73334 -1.1615,-1.57629 -3.9822,-2.57185 l -7.6326,-2.73778 v -2.24 l 25.8015,-5.72444 v 18.16889 0 q 1.9911,-3.23556 4.397,-6.55408 2.4059,-3.40148 5.4756,-6.05629 3.0696,-2.73778 6.72,-4.48 3.7333,-1.74223 8.2963,-1.74223 2.3229,0 3.9822,0.24889 1.6592,0.16593 2.9866,0.49778 1.3274,0.33185 2.4889,0.82963 1.1615,0.41481 2.5719,0.91259 v 19.41334 h -4.2311 l -2.6548,-6.96889 q -0.3319,-0.82963 -1.4104,-1.41037 -1.0785,-0.66371 -2.4889,-0.99556 -1.3274,-0.41481 -2.9037,-0.58074 -1.4933,-0.24889 -2.7378,-0.24889 -2.9867,0 -5.6415,0.74667 -2.6548,0.74667 -5.0607,2.15704 -2.4059,1.41037 -4.6459,3.5674 -2.1571,2.15704 -4.2311,4.97778 v 49.03111 q 0,1.90815 0.9955,3.1526 1.0785,1.24444 2.7378,1.57629 l 10.7022,2.07408 v 3.73333 h -41.3155 z"
         style="font-style:normal;font-variant:normal;font-weight:normal;font-stretch:normal;font-size:186.66667175px;font-family:'Sitka Banner';-inkscape-font-specification:'Sitka Banner, Normal';font-variant-ligatures:normal;font-variant-caps:normal;font-variant-numeric:normal;font-feature-settings:normal;text-align:center;writing-mode:lr-tb;text-anchor:middle;fill:#c13357;fill-opacity:1"
         id="path1214"
         inkscape:connector-curvature="0" />
    </g>
  </g>
</svg>
