<?xml version="1.0" encoding="UTF-8" standalone="no"?>
<!-- Created with Inkscape (http://www.inkscape.org/) -->

<svg
   xmlns:dc="http://purl.org/dc/elements/1.1/"
   xmlns:cc="http://creativecommons.org/ns#"
   xmlns:rdf="http://www.w3.org/1999/02/22-rdf-syntax-ns#"
   xmlns:svg="http://www.w3.org/2000/svg"
   xmlns="http://www.w3.org/2000/svg"
   xmlns:sodipodi="http://sodipodi.sourceforge.net/DTD/sodipodi-0.dtd"
   xmlns:inkscape="http://www.inkscape.org/namespaces/inkscape"
   width="297mm"
   height="147mm"
   viewBox="0 0 297 147"
   version="1.1"
   id="svg8"
   inkscape:version="0.92.4 (5da689c313, 2019-01-14)"
   sodipodi:docname="clink.svg"
   inkscape:export-filename="D:\ResDev\_Orgs\DevelopersPackages.org\DevPack_web\org.dev-pack.plink\assets\logos\clink.png"
   inkscape:export-xdpi="247.71001"
   inkscape:export-ydpi="247.71001">
  <defs
     id="defs2" />
  <sodipodi:namedview
     id="base"
     pagecolor="#ffffff"
     bordercolor="#666666"
     borderopacity="1.0"
     inkscape:pageopacity="0.0"
     inkscape:pageshadow="2"
     inkscape:zoom="0.35"
     inkscape:cx="1143.5639"
     inkscape:cy="-385.52511"
     inkscape:document-units="mm"
     inkscape:current-layer="layer3"
     showgrid="false"
     inkscape:window-width="1822"
     inkscape:window-height="1051"
     inkscape:window-x="1689"
     inkscape:window-y="-9"
     inkscape:window-maximized="1" />
  <metadata
     id="metadata5">
    <rdf:RDF>
      <cc:Work
         rdf:about="">
        <dc:format>image/svg+xml</dc:format>
        <dc:type
           rdf:resource="http://purl.org/dc/dcmitype/StillImage" />
        <dc:title></dc:title>
      </cc:Work>
    </rdf:RDF>
  </metadata>
  <g
     inkscape:label="cheers"
     inkscape:groupmode="layer"
     id="layer1"
     transform="translate(0,-150)" />
  <g
     inkscape:groupmode="layer"
     id="layer3"
     inkscape:label="lambda"
     style="display:inline"
     transform="translate(0,-63)">
    <path
       inkscape:connector-curvature="0"
       style="fill:#c13357;fill-opacity:1;stroke:none;stroke-width:0.26458332px;stroke-linecap:butt;stroke-linejoin:miter;stroke-opacity:1"
       d="M 104.24586,70.715608 C 38.782285,132.62033 25.626642,162.18654 19.390035,183.73119 c -2.48047,7.15793 -3.897585,7.44097 -7.063137,10.18129 l -3.7563613,2.81119 c 0.9685636,5.55152 4.4406523,7.07902 6.5789293,7.79178 l 3.342949,-3.39773 c 3.283667,-3.26004 4.960863,-6.28348 10.819495,-7.46466 33.923362,-7.37054 62.744196,-26.17507 118.59021,-75.69011 C 130.89319,95.567753 122.76671,88.102518 104.24586,70.715608 Z m -0.0946,5.083928 c 21.07219,18.237359 21.35597,21.468971 38.74287,41.974284 -14.74107,13.32373 -28.74553,24.47409 -28.74553,24.47409 L 44.695466,141.58645 C 73.478354,102.08772 104.15129,75.799536 104.15129,75.799536 Z"
       id="path842"
       sodipodi:nodetypes="ccccccccccccccc"
       inkscape:export-xdpi="247.71001"
       inkscape:export-ydpi="247.71001" />
    <path
       inkscape:connector-curvature="0"
       id="path837"
       style="font-style:normal;font-variant:normal;font-weight:500;font-stretch:normal;font-size:346.66668701px;line-height:1.25;font-family:'BIZ UDMincho';-inkscape-font-specification:'BIZ UDMincho, Medium';font-variant-ligatures:normal;font-variant-caps:normal;font-variant-numeric:normal;font-feature-settings:normal;text-align:start;letter-spacing:0px;word-spacing:0px;writing-mode:lr-tb;text-anchor:start;fill:#c13357;fill-opacity:1;stroke:none;stroke-width:0.28089392"
       d="m 155.31891,151.29366 v -4.5682 q 0,-6.80754 -1.71627,-9.76345 -1.81721,-3.00069 -6.15833,-3.00069 -4.69447,0 -8.73273,6.49404 l -3.43252,-1.92582 q 2.57438,-5.24002 6.25928,-8.37507 3.83634,-3.26942 7.9756,-3.26942 6.05736,0 9.03558,5.6431 1.96866,3.71728 1.96866,9.04687 v 25.30425 q 0,13.92852 1.46385,18.94458 2.12008,7.21059 7.8746,7.21059 6.66314,0 11.76146,-9.00204 l 3.07915,2.59761 q -6.66309,13.6598 -16.70829,13.6598 -6.5117,0 -10.24706,-6.58358 -3.43257,-6.04614 -3.43257,-16.70527 v -13.39108 l -23.87619,34.84369 h -8.98511 z" />
    <path
       inkscape:connector-curvature="0"
       style="display:inline;fill:#c13357;fill-opacity:1;stroke:none;stroke-width:0.26458332px;stroke-linecap:butt;stroke-linejoin:miter;stroke-opacity:1"
       d="m 195.26256,70.186424 c 65.46356,61.904716 78.6192,91.470936 84.8558,113.015586 2.48047,7.15793 3.89759,7.44097 7.06314,10.18129 l 3.75636,2.81119 c -0.96856,5.55152 -4.44065,7.07902 -6.57893,7.79178 l -3.34295,-3.39773 c -3.28366,-3.26004 -4.96086,-6.28348 -10.81949,-7.46466 -33.92336,-7.37054 -62.7442,-26.17507 -118.59017,-75.69011 17.00893,-22.395201 25.1354,-29.860436 43.65624,-47.247346 z m 0.0946,5.083928 c -21.07218,18.237359 -21.35595,21.46897 -38.74285,41.974278 14.74107,13.32373 28.74552,24.4741 28.74552,24.4741 l 69.45313,-0.66147 C 226.03005,101.55853 195.35713,75.270352 195.35713,75.270352 Z"
       id="path842-6"
       sodipodi:nodetypes="ccccccccccccccc"
       inkscape:export-xdpi="247.71001"
       inkscape:export-ydpi="247.71001" />
  </g>
</svg>
