<?xml version="1.0" encoding="UTF-8" standalone="no"?>
<!-- Created with Inkscape (http://www.inkscape.org/) -->

<svg
   xmlns:dc="http://purl.org/dc/elements/1.1/"
   xmlns:cc="http://creativecommons.org/ns#"
   xmlns:rdf="http://www.w3.org/1999/02/22-rdf-syntax-ns#"
   xmlns:svg="http://www.w3.org/2000/svg"
   xmlns="http://www.w3.org/2000/svg"
   xmlns:sodipodi="http://sodipodi.sourceforge.net/DTD/sodipodi-0.dtd"
   xmlns:inkscape="http://www.inkscape.org/namespaces/inkscape"
   width="302mm"
   height="243mm"
   viewBox="0 0 302 243"
   version="1.1"
   id="svg8"
   inkscape:version="0.92.4 (5da689c313, 2019-01-14)"
   sodipodi:docname="clink_2.svg"
   inkscape:export-filename="D:\ResDev\_Orgs\DevelopersPackages.org\DevPack_web\org.dev-pack.plink\assets\logos\clink2.png"
   inkscape:export-xdpi="247.71001"
   inkscape:export-ydpi="247.71001">
  <defs
     id="defs2" />
  <sodipodi:namedview
     id="base"
     pagecolor="#ffffff"
     bordercolor="#666666"
     borderopacity="1.0"
     inkscape:pageopacity="0.0"
     inkscape:pageshadow="2"
     inkscape:zoom="0.35"
     inkscape:cx="508.93489"
     inkscape:cy="342.84374"
     inkscape:document-units="mm"
     inkscape:current-layer="flowRoot1149"
     showgrid="false"
     inkscape:window-width="1822"
     inkscape:window-height="1051"
     inkscape:window-x="1689"
     inkscape:window-y="-9"
     inkscape:window-maximized="1" />
  <metadata
     id="metadata5">
    <rdf:RDF>
      <cc:Work
         rdf:about="">
        <dc:format>image/svg+xml</dc:format>
        <dc:type
           rdf:resource="http://purl.org/dc/dcmitype/StillImage" />
        <dc:title></dc:title>
      </cc:Work>
    </rdf:RDF>
  </metadata>
  <g
     inkscape:label="cheers"
     inkscape:groupmode="layer"
     id="layer1"
     transform="translate(0,-54)" />
  <g
     inkscape:groupmode="layer"
     id="layer3"
     inkscape:label="lambda"
     style="display:inline"
     transform="translate(0,33)">
    <path
       inkscape:connector-curvature="0"
       style="display:inline;fill:#c13357;fill-opacity:1;stroke:none;stroke-width:0.26458332px;stroke-linecap:butt;stroke-linejoin:miter;stroke-opacity:1"
       d="M 106.19919,-23.663354 C 40.735621,38.241368 27.579978,67.807522 21.34337,89.352172 c -2.480469,7.157899 -3.897584,7.440939 -7.063137,10.181241 l -3.756362,2.811187 c 0.968564,5.55152 4.440653,7.07902 6.57893,7.79178 l 3.34295,-3.39773 c 3.283666,-3.26004 4.960863,-6.28348 10.819495,-7.464654 C 65.188609,91.903498 94.009444,73.098972 149.85544,23.583986 132.84651,1.1887961 124.72003,-6.2764386 106.19919,-23.663354 Z m -0.0946,5.083928 c 21.07219,18.23736429 21.35596,21.4689752 38.74287,41.974283 -14.74107,13.323731 -28.74554,24.474035 -28.74554,24.474035 L 46.648802,47.207439 C 75.431691,7.7087605 106.10462,-18.579426 106.10462,-18.579426 Z"
       id="path842"
       sodipodi:nodetypes="ccccccccccccccc"
       inkscape:export-xdpi="247.71001"
       inkscape:export-ydpi="247.71001" />
    <path
       inkscape:connector-curvature="0"
       id="path837"
       style="font-style:normal;font-variant:normal;font-weight:500;font-stretch:normal;font-size:346.66668701px;line-height:1.25;font-family:'BIZ UDMincho';-inkscape-font-specification:'BIZ UDMincho, Medium';font-variant-ligatures:normal;font-variant-caps:normal;font-variant-numeric:normal;font-feature-settings:normal;text-align:start;letter-spacing:0px;word-spacing:0px;writing-mode:lr-tb;text-anchor:start;display:inline;fill:#c13357;fill-opacity:1;stroke:none;stroke-width:0.28089392"
       d="m 157.27224,56.914642 v -4.568201 q 0,-6.807523 -1.71627,-9.763419 -1.81722,-3.000671 -6.15833,-3.000671 -4.69448,0 -8.73273,6.494005 l -3.43253,-1.92581 q 2.57438,-5.239993 6.25928,-8.375039 3.83635,-3.269422 7.9756,-3.269422 6.05736,0 9.03559,5.643105 1.96865,3.717258 1.96865,9.046819 v 25.304243 q 0,13.92852 1.46385,18.944579 2.12008,7.210548 7.8746,7.210548 6.66314,0 11.76146,-9.001997 l 3.07917,2.597603 q -6.66311,13.659755 -16.70831,13.659755 -6.5117,0 -10.24705,-6.583574 -3.43258,-6.046107 -3.43258,-16.705224 V 69.230862 L 132.38645,104.0745 h -8.98511 z" />
    <path
       inkscape:connector-curvature="0"
       style="display:inline;fill:#c13357;fill-opacity:1;stroke:none;stroke-width:0.26458332px;stroke-linecap:butt;stroke-linejoin:miter;stroke-opacity:1"
       d="m 197.21589,-24.192538 c 65.46357,61.904721 78.61921,91.47088 84.85581,113.01553 2.48047,7.157902 3.89757,7.440942 7.06313,10.181244 l 3.75637,2.811184 c -0.96856,5.55152 -4.44066,7.07902 -6.57895,7.79178 l -3.34293,-3.39773 c -3.28366,-3.26004 -4.96085,-6.283477 -10.8195,-7.464651 C 238.22647,91.374321 209.40563,72.569792 153.55964,23.054806 170.56857,0.65961223 178.69505,-6.8056226 197.21589,-24.192538 Z m 0.0946,5.083928 c -21.0722,18.23736432 -21.35596,21.4689745 -38.74286,41.974276 14.74107,13.323732 28.74552,24.474049 28.74552,24.474049 l 69.45314,-0.661464 C 227.98339,7.1795698 197.31046,-19.10861 197.31046,-19.10861 Z"
       id="path842-6"
       sodipodi:nodetypes="ccccccccccccccc"
       inkscape:export-xdpi="247.71001"
       inkscape:export-ydpi="247.71001" />
    <g
       aria-label="CL Combinator"
       transform="matrix(0.26458333,0,0,0.26458333,-33.675444,-31.030856)"
       style="font-style:normal;font-variant:normal;font-weight:normal;font-stretch:normal;font-size:186.66667175px;line-height:1.25;font-family:'Sitka Banner';-inkscape-font-specification:'Sitka Banner, Normal';font-variant-ligatures:normal;font-variant-caps:normal;font-variant-numeric:normal;font-feature-settings:normal;text-align:center;letter-spacing:0px;word-spacing:0px;writing-mode:lr-tb;text-anchor:middle;fill:#c13357;fill-opacity:1;stroke:none"
       id="flowRoot1149">
      <path
         d="m 250.53636,667.43113 v 6.96889 q -3.40148,2.90371 -7.88148,6.0563 -4.48,3.06963 -9.78963,5.72444 -5.22667,2.57185 -11.11704,4.23111 -5.89037,1.74223 -12.02963,1.74223 -12.52741,0 -22.64889,-4.06519 -10.03852,-4.14815 -17.17333,-11.78074 -7.13482,-7.71556 -11.03408,-18.66667 -3.81629,-11.03407 -3.81629,-24.80592 0,-13.27408 4.14815,-24.30815 4.23111,-11.03408 11.61481,-18.91556 7.38371,-7.88148 17.33926,-12.19555 10.03852,-4.39704 21.7363,-4.39704 4.06518,0 8.96,0.58074 4.89481,0.58074 9.78963,1.49333 4.89481,0.91259 9.37481,2.07408 4.48,1.16148 7.79852,2.32296 v 26.46519 h -4.39704 l -5.30963,-14.51852 q -0.41481,-1.5763 -1.3274,-2.32297 -0.9126,-0.74666 -2.07408,-1.41037 -2.65481,-1.49333 -5.97333,-2.82074 -3.31852,-1.32741 -6.96889,-2.32296 -3.65037,-1.07852 -7.3837,-1.65926 -3.65037,-0.58074 -7.05186,-0.58074 -7.3837,0 -13.60592,3.15259 -6.22222,3.06963 -10.70222,9.29185 -4.48,6.22223 -6.96889,15.59704 -2.48889,9.29185 -2.48889,21.7363 0,25.96741 11.03407,38.99259 11.03408,13.02519 31.60889,13.02519 6.80297,0 12.1126,-1.41037 5.30962,-1.49334 9.54074,-3.65037 4.23111,-2.24 7.3837,-4.81186 3.23556,-2.57185 5.80741,-4.81185 z"
         style="font-style:normal;font-variant:normal;font-weight:normal;font-stretch:normal;font-size:186.66667175px;font-family:'Sitka Banner';-inkscape-font-specification:'Sitka Banner, Normal';font-variant-ligatures:normal;font-variant-caps:normal;font-variant-numeric:normal;font-feature-settings:normal;text-align:center;writing-mode:lr-tb;text-anchor:middle;fill:#c13357;fill-opacity:1"
         id="path1192"
         inkscape:connector-curvature="0" />
      <path
         d="m 256.89567,685.84891 10.53629,-2.24 q 1.65926,-0.41481 2.73778,-1.74222 1.16148,-1.32741 1.16148,-3.15259 v -92.25482 q 0,-1.90815 -1.16148,-3.23556 -1.07852,-1.3274 -2.73778,-1.74222 l -10.53629,-2.15704 v -3.89926 h 44.38518 v 3.89926 l -11.03407,2.15704 q -1.65926,0.33185 -2.82074,1.74222 -1.16148,1.41037 -1.16148,3.23556 v 96.9837 h 41.97926 q 0.82963,0 1.41037,-0.41481 0.6637,-0.49778 1.07852,-1.16148 0.41481,-0.74667 0.6637,-1.49334 0.24889,-0.74666 0.41481,-1.3274 l 6.30519,-21.90223 h 4.39704 v 32.60445 h -85.61778 z"
         style="font-style:normal;font-variant:normal;font-weight:normal;font-stretch:normal;font-size:186.66667175px;font-family:'Sitka Banner';-inkscape-font-specification:'Sitka Banner, Normal';font-variant-ligatures:normal;font-variant-caps:normal;font-variant-numeric:normal;font-feature-settings:normal;text-align:center;writing-mode:lr-tb;text-anchor:middle;fill:#c13357;fill-opacity:1"
         id="path1194"
         inkscape:connector-curvature="0" />
      <path
         d="m 486.42178,667.43113 v 6.96889 q -3.40148,2.90371 -7.88148,6.0563 -4.48,3.06963 -9.78963,5.72444 -5.22667,2.57185 -11.11704,4.23111 -5.89037,1.74223 -12.02963,1.74223 -12.5274,0 -22.64889,-4.06519 -10.03851,-4.14815 -17.17333,-11.78074 -7.13481,-7.71556 -11.03407,-18.66667 -3.8163,-11.03407 -3.8163,-24.80592 0,-13.27408 4.14815,-24.30815 4.23111,-11.03408 11.61481,-18.91556 7.38371,-7.88148 17.33926,-12.19555 10.03852,-4.39704 21.7363,-4.39704 4.06519,0 8.96,0.58074 4.89481,0.58074 9.78963,1.49333 4.89481,0.91259 9.37481,2.07408 4.48001,1.16148 7.79852,2.32296 v 26.46519 h -4.39703 l -5.30963,-14.51852 q -0.41482,-1.5763 -1.32741,-2.32297 -0.91259,-0.74666 -2.07407,-1.41037 -2.65482,-1.49333 -5.97334,-2.82074 -3.31852,-1.32741 -6.96889,-2.32296 -3.65037,-1.07852 -7.3837,-1.65926 -3.65037,-0.58074 -7.05185,-0.58074 -7.38371,0 -13.60593,3.15259 -6.22222,3.06963 -10.70222,9.29185 -4.48,6.22223 -6.96889,15.59704 -2.48889,9.29185 -2.48889,21.7363 0,25.96741 11.03407,38.99259 11.03408,13.02519 31.60889,13.02519 6.80297,0 12.1126,-1.41037 5.30963,-1.49334 9.54074,-3.65037 4.23111,-2.24 7.3837,-4.81186 3.23556,-2.57185 5.80741,-4.81185 z"
         style="font-style:normal;font-variant:normal;font-weight:normal;font-stretch:normal;font-size:186.66667175px;font-family:'Sitka Banner';-inkscape-font-specification:'Sitka Banner, Normal';font-variant-ligatures:normal;font-variant-caps:normal;font-variant-numeric:normal;font-feature-settings:normal;text-align:center;writing-mode:lr-tb;text-anchor:middle;fill:#c13357;fill-opacity:1"
         id="path1196"
         inkscape:connector-curvature="0" />
      <path
         d="m 531.19293,691.98817 q -8.71111,0 -15.76296,-2.98667 -6.96889,-2.98666 -11.94667,-8.54518 -4.89481,-5.55852 -7.54963,-13.35704 -2.65481,-7.79852 -2.65481,-17.42222 0,-8.87704 2.65481,-16.5926 2.65482,-7.79851 7.6326,-13.60592 4.97777,-5.80741 12.11259,-9.12593 7.21778,-3.31852 16.3437,-3.31852 9.78963,0 16.92445,3.56741 7.13481,3.48445 11.78074,9.37482 4.64593,5.8074 6.88593,13.52296 2.32296,7.63259 2.32296,15.84593 0,8.79407 -2.65482,16.59259 -2.57185,7.71555 -7.54963,13.52296 -4.97777,5.80741 -12.19555,9.20889 -7.13482,3.31852 -16.34371,3.31852 z m 1.16148,-5.47556 q 6.63704,0 10.95112,-3.40148 4.31407,-3.48444 6.80296,-8.71111 2.57185,-5.30963 3.56741,-11.53185 0.99555,-6.22222 0.99555,-11.8637 0,-6.88593 -1.3274,-13.77186 -1.24445,-6.88592 -4.06519,-12.36148 -2.82074,-5.55852 -7.3837,-8.96 -4.56297,-3.48444 -11.03408,-3.48444 -4.39704,0 -7.71555,1.57629 -3.31852,1.5763 -5.80741,4.31408 -2.48889,2.65481 -4.14815,6.22222 -1.65926,3.48444 -2.73778,7.46667 -0.99555,3.89926 -1.41037,7.96444 -0.41481,4.06519 -0.41481,7.79852 0,4.14815 0.41481,8.62815 0.49778,4.48 1.5763,8.79407 1.16148,4.23111 2.9037,8.13037 1.82519,3.89926 4.48,6.80297 2.65482,2.9037 6.13926,4.64592 3.56741,1.74222 8.21333,1.74222 z"
         style="font-style:normal;font-variant:normal;font-weight:normal;font-stretch:normal;font-size:186.66667175px;font-family:'Sitka Banner';-inkscape-font-specification:'Sitka Banner, Normal';font-variant-ligatures:normal;font-variant-caps:normal;font-variant-numeric:normal;font-feature-settings:normal;text-align:center;writing-mode:lr-tb;text-anchor:middle;fill:#c13357;fill-opacity:1"
         id="path1198"
         inkscape:connector-curvature="0" />
      <path
         d="m 577.92765,686.18076 9.04297,-2.07407 q 1.65926,-0.41482 2.57185,-1.74222 0.99556,-1.32741 0.99556,-3.1526 v -54.67259 q 0,-2.15704 -1.07852,-3.56741 -1.07852,-1.41037 -3.89926,-2.40592 l -7.6326,-2.73778 v -2.24 l 26.13334,-5.89037 v 13.44 0 q 2.9037,-4.06519 5.80741,-6.72 2.98666,-2.73778 6.05629,-4.31408 3.1526,-1.65926 6.47111,-2.32296 3.31852,-0.74667 7.05186,-0.74667 3.98222,0 7.63259,0.9126 3.65037,0.82963 6.72,2.73777 3.06963,1.90815 5.30963,4.89482 2.32296,2.9037 3.56741,7.05185 3.89926,-5.55852 7.46666,-8.62815 3.65037,-3.15259 6.96889,-4.64592 3.40148,-1.5763 6.55408,-1.90815 3.15259,-0.41482 6.05629,-0.41482 5.22667,0 9.78963,1.65926 4.56297,1.5763 7.88148,5.06074 3.40149,3.40149 5.30963,8.87704 1.99112,5.39259 1.99112,12.94222 v 43.80445 q 0,1.82518 0.99555,2.98667 1.07852,1.16148 2.73778,1.57629 l 7.96444,2.07408 v 3.73333 h -38.24592 v -3.56741 l 9.04296,-2.07407 q 1.65926,-0.41482 2.57185,-1.74222 0.99556,-1.32741 0.99556,-3.1526 v -38.41185 q 0,-5.55852 -0.66371,-10.03852 -0.58074,-4.56296 -2.40592,-7.71555 -1.74222,-3.23556 -5.14371,-4.97778 -3.31851,-1.74222 -8.79407,-1.74222 -2.32296,0 -4.97778,0.49777 -2.57185,0.49778 -5.1437,1.5763 -2.57185,0.99556 -4.97778,2.73778 -2.32296,1.65926 -4.06519,4.06518 v 54.17482 q 0,1.90815 0.99556,3.06963 1.07852,1.07852 2.73778,1.49333 l 7.96444,2.07408 v 3.73333 h -38.24592 v -3.56741 l 9.04296,-2.07407 q 1.65926,-0.41482 2.57185,-1.65926 0.99556,-1.24445 0.99556,-3.06963 v -38.57778 q 0,-5.55852 -0.66371,-10.03852 -0.58074,-4.56296 -2.40592,-7.71555 -1.82519,-3.23556 -5.22667,-4.97778 -3.31852,-1.74222 -8.87704,-1.74222 -2.40592,0 -5.06074,0.49777 -2.57185,0.49778 -5.1437,1.5763 -2.48889,0.99556 -4.81185,2.65481 -2.24,1.65926 -3.98223,3.98223 v 54.17481 q -0.16592,1.90815 0.9126,3.1526 1.16148,1.16148 2.82074,1.57629 l 7.96444,2.07408 v 3.73333 h -38.24593 z"
         style="font-style:normal;font-variant:normal;font-weight:normal;font-stretch:normal;font-size:186.66667175px;font-family:'Sitka Banner';-inkscape-font-specification:'Sitka Banner, Normal';font-variant-ligatures:normal;font-variant-caps:normal;font-variant-numeric:normal;font-feature-settings:normal;text-align:center;writing-mode:lr-tb;text-anchor:middle;fill:#c13357;fill-opacity:1"
         id="path1200"
         inkscape:connector-curvature="0" />
      <path
         d="m 730.98105,581.89632 q 0,-2.15704 -1.16148,-3.65038 -1.16148,-1.49333 -3.98222,-2.48888 l -7.63259,-2.73778 v -2.24 l 26.71407,-6.38815 v 52.43259 4.14815 q 3.31852,-4.81185 6.96889,-7.63259 3.65037,-2.82074 7.05185,-4.14815 3.48445,-1.41037 6.47112,-1.74222 3.06963,-0.41482 5.1437,-0.41482 7.46667,0 13.27407,2.90371 5.89037,2.9037 9.95556,8.13037 4.06518,5.22666 6.22222,12.52741 2.15704,7.21777 2.15704,15.84592 0,9.54074 -2.65482,17.83704 -2.65481,8.2963 -7.79851,14.51852 -5.06075,6.13926 -12.44445,9.70667 -7.30074,3.48444 -16.67556,3.48444 -3.48444,0 -7.30074,-0.33185 -3.81629,-0.24889 -7.79852,-1.07852 -3.98222,-0.82963 -8.13037,-2.24 -4.14814,-1.49333 -8.37926,-3.8163 z m 13.93778,97.14963 q 1.07852,1.16148 3.06963,2.48889 1.99111,1.24444 4.31408,2.40592 2.40592,1.07852 4.81185,1.82519 2.40592,0.6637 4.39704,0.6637 6.72,0 11.61481,-2.82074 4.97778,-2.9037 8.13037,-7.63259 3.23556,-4.81185 4.72889,-10.95111 1.5763,-6.13926 1.5763,-12.69334 0,-7.79852 -1.49334,-14.35259 -1.41037,-6.63704 -4.48,-11.44889 -2.98666,-4.81185 -7.71555,-7.46667 -4.64593,-2.73777 -11.11704,-2.73777 -1.90815,0 -4.31407,0.41481 -2.32297,0.41482 -4.81186,1.41037 -2.40592,0.99556 -4.72888,2.73778 -2.24,1.74222 -3.98223,4.31407 z"
         style="font-style:normal;font-variant:normal;font-weight:normal;font-stretch:normal;font-size:186.66667175px;font-family:'Sitka Banner';-inkscape-font-specification:'Sitka Banner, Normal';font-variant-ligatures:normal;font-variant-caps:normal;font-variant-numeric:normal;font-feature-settings:normal;text-align:center;writing-mode:lr-tb;text-anchor:middle;fill:#c13357;fill-opacity:1"
         id="path1202"
         inkscape:connector-curvature="0" />
      <path
         d="m 828.83395,588.11854 q -2.07408,0 -3.89926,-0.74667 -1.82519,-0.82963 -3.1526,-2.15704 -1.3274,-1.3274 -2.15703,-3.15259 -0.74667,-1.82518 -0.74667,-3.98222 0,-2.07408 0.74667,-3.89926 0.82963,-1.82519 2.15703,-3.15259 1.32741,-1.32741 3.1526,-2.07408 1.82518,-0.82963 3.89926,-0.82963 2.07407,0 3.89926,0.82963 1.90814,0.74667 3.31851,2.07408 1.41037,1.3274 2.15704,3.15259 0.82963,1.82518 0.82963,3.89926 0,2.15704 -0.82963,3.98222 -0.74667,1.82519 -2.15704,3.15259 -1.41037,1.32741 -3.31851,2.15704 -1.82519,0.74667 -3.89926,0.74667 z m -19.16445,97.8963 9.37482,-2.07408 q 1.65926,-0.41481 2.65481,-1.65926 1.07852,-1.24444 1.07852,-3.06963 v -54.67259 q 0,-2.15704 -1.16148,-3.65037 -1.16148,-1.49333 -3.98222,-2.48889 l -7.6326,-2.73778 v -2.24 l 26.71408,-5.72444 v 71.51407 q 0,1.90815 0.99555,3.1526 1.07852,1.16148 2.73778,1.57629 l 8.62815,2.07408 v 3.73333 H 809.6695 Z"
         style="font-style:normal;font-variant:normal;font-weight:normal;font-stretch:normal;font-size:186.66667175px;font-family:'Sitka Banner';-inkscape-font-specification:'Sitka Banner, Normal';font-variant-ligatures:normal;font-variant-caps:normal;font-variant-numeric:normal;font-feature-settings:normal;text-align:center;writing-mode:lr-tb;text-anchor:middle;fill:#c13357;fill-opacity:1"
         id="path1204"
         inkscape:connector-curvature="0" />
      <path
         d="m 854.48048,686.01484 9.04296,-2.07408 q 1.65926,-0.41481 2.65482,-1.65926 1.07852,-1.24444 1.07852,-3.06963 v -54.67259 q 0,-2.15704 -1.16149,-3.65037 -1.16148,-1.49333 -3.98222,-2.48889 l -7.63259,-2.73778 v -2.24 l 26.29926,-5.72444 v 13.44 0 q 3.15259,-4.39704 6.30518,-7.13482 3.23556,-2.82074 6.47112,-4.31407 3.23555,-1.5763 6.55407,-2.07408 3.31852,-0.58074 6.72,-0.58074 5.39259,0 10.12148,1.65926 4.72889,1.5763 8.21334,5.06074 3.48444,3.40149 5.47555,8.87704 1.99111,5.39259 1.99111,12.94222 v 43.30667 q 0,2.07408 1.07852,3.40148 1.16148,1.24445 2.65482,1.65926 l 7.96444,2.07408 v 3.73333 h -38.32889 v -3.73333 l 9.12593,-2.07408 q 1.57629,-0.41481 2.57185,-1.65926 0.99555,-1.3274 0.99555,-3.40148 v -38.08 q 0,-5.55852 -0.6637,-10.03852 -0.58074,-4.56296 -2.57185,-7.71555 -1.90815,-3.23556 -5.39259,-4.97778 -3.48445,-1.74222 -9.20889,-1.74222 -2.48889,0 -5.22667,0.49777 -2.65482,0.49778 -5.30963,1.5763 -2.57185,0.99556 -4.97778,2.65481 -2.32296,1.65926 -4.14815,3.98223 v 54.17481 q 0,1.90815 0.99556,3.1526 1.07852,1.16148 2.73778,1.57629 l 7.96444,2.07408 v 3.73333 h -38.41185 z"
         style="font-style:normal;font-variant:normal;font-weight:normal;font-stretch:normal;font-size:186.66667175px;font-family:'Sitka Banner';-inkscape-font-specification:'Sitka Banner, Normal';font-variant-ligatures:normal;font-variant-caps:normal;font-variant-numeric:normal;font-feature-settings:normal;text-align:center;writing-mode:lr-tb;text-anchor:middle;fill:#c13357;fill-opacity:1"
         id="path1206"
         inkscape:connector-curvature="0" />
      <path
         d="m 998.50192,677.88447 q -2.90371,4.39703 -6.38815,7.05185 -3.40148,2.65481 -6.96889,4.14815 -3.48445,1.41037 -6.96889,1.82518 -3.40148,0.49778 -6.30519,0.49778 -4.72889,0 -8.62815,-1.74222 -3.81629,-1.74223 -6.63703,-4.64593 -2.73778,-2.9037 -4.31408,-6.80296 -1.49333,-3.89926 -1.49333,-8.21334 0,-5.06074 1.74222,-9.04296 1.82519,-3.98222 4.81185,-6.96889 3.06963,-3.06963 6.96889,-5.1437 3.89926,-2.15704 8.04741,-3.48445 4.14815,-1.3274 8.2963,-1.90814 4.14815,-0.66371 7.71555,-0.66371 0.74667,0 2.15704,0.16593 1.41037,0.083 2.9037,0.24889 1.5763,0.083 2.98667,0.16592 1.49333,0.083 2.32296,0.083 l 0.083,-14.93334 q 0,-3.98222 -0.74667,-6.63704 -0.6637,-2.65481 -2.15704,-4.14814 -1.41037,-1.5763 -3.65037,-2.15704 -2.24,-0.6637 -5.39259,-0.6637 -4.06519,0 -7.96444,1.41037 -3.8163,1.3274 -7.21778,3.31851 -3.40148,1.99112 -6.30519,4.23112 -2.9037,2.15703 -4.97778,3.73333 h -1.82518 l -2.57185,-13.10815 q 2.40592,-1.32741 5.30963,-2.65481 2.98666,-1.41037 6.38815,-2.40593 3.40148,-1.07852 7.21777,-1.74222 3.89926,-0.66371 8.13037,-0.66371 5.06074,0 10.37037,1.41037 5.30963,1.32741 9.6237,4.39704 4.3141,3.06963 6.9689,8.13037 2.7377,5.06074 2.6548,12.36148 l -0.4978,43.4726 q 0,1.24444 0.4148,2.24 0.4148,0.91259 1.2445,1.65926 0.9126,0.6637 2.157,1.07852 1.3274,0.33185 3.0696,0.33185 0.4148,0 1.3274,-0.16593 0.9126,-0.16592 1.9911,-0.33185 1.1615,-0.24889 2.24,-0.49778 1.1615,-0.33185 1.9912,-0.58074 h 0.8296 v 3.98222 q -1.1615,0.9126 -3.0696,2.15704 -1.8252,1.16148 -4.0652,2.24 -2.1571,0.99556 -4.563,1.74222 -2.323,0.74667 -4.48,0.74667 -3.1526,0 -5.5585,-0.6637 -2.4059,-0.66371 -4.0652,-2.15704 -1.5763,-1.5763 -2.40589,-4.14815 -0.74666,-2.65481 -0.74666,-6.55407 z m 0.24888,-30.19852 q -7.54963,0 -13.68889,1.07852 -6.05629,1.07851 -10.37037,3.40148 -4.23111,2.32296 -6.55407,5.97333 -2.32296,3.65037 -2.32296,8.71111 0,4.31408 1.24444,7.30074 1.32741,2.90371 3.31852,4.72889 2.07407,1.82519 4.56296,2.65482 2.57185,0.74666 4.97778,0.74666 2.32296,0 4.89482,-0.49777 2.65481,-0.49778 5.1437,-1.49334 2.48889,-1.07852 4.72889,-2.73778 2.24,-1.65926 3.8163,-3.98222 z"
         style="font-style:normal;font-variant:normal;font-weight:normal;font-stretch:normal;font-size:186.66667175px;font-family:'Sitka Banner';-inkscape-font-specification:'Sitka Banner, Normal';font-variant-ligatures:normal;font-variant-caps:normal;font-variant-numeric:normal;font-feature-settings:normal;text-align:center;writing-mode:lr-tb;text-anchor:middle;fill:#c13357;fill-opacity:1"
         id="path1208"
         inkscape:connector-curvature="0" />
      <path
         d="m 1039.519,616.49187 h -12.9422 v -4.06518 q 3.2355,-0.82963 5.8074,-1.49334 2.5718,-0.74666 4.397,-1.99111 1.9082,-1.24444 2.9867,-3.40148 1.0785,-2.15704 1.3274,-5.89037 l 0.5807,-10.20444 11.7808,-2.48889 v 22.89777 h 28.3733 l -2.4059,6.63704 h -25.9674 v 56.66371 q 0,2.48889 1.6592,4.23111 1.6593,1.65926 3.9823,2.82074 2.4059,1.07852 4.9777,1.5763 2.6549,0.49777 4.646,0.49777 1.3274,0 2.9866,-0.24889 1.6593,-0.33185 3.2356,-0.6637 1.5763,-0.41481 2.8207,-0.82963 1.3274,-0.49778 1.9911,-0.82963 h 0.8297 v 4.39704 q -1.1615,0.74667 -3.2356,1.99111 -1.9911,1.16148 -4.7289,2.32296 -2.6548,1.16148 -5.9733,1.99111 -3.2356,0.82963 -6.8859,0.82963 -4.3971,0 -8.1304,-1.07852 -3.6504,-1.07851 -6.3882,-3.06962 -2.6548,-2.07408 -4.2311,-5.06075 -1.4933,-3.06963 -1.4933,-7.05185 z"
         style="font-style:normal;font-variant:normal;font-weight:normal;font-stretch:normal;font-size:186.66667175px;font-family:'Sitka Banner';-inkscape-font-specification:'Sitka Banner, Normal';font-variant-ligatures:normal;font-variant-caps:normal;font-variant-numeric:normal;font-feature-settings:normal;text-align:center;writing-mode:lr-tb;text-anchor:middle;fill:#c13357;fill-opacity:1"
         id="path1210"
         inkscape:connector-curvature="0" />
      <path
         d="m 1122.9117,691.98817 q -8.7111,0 -15.763,-2.98667 -6.9689,-2.98666 -11.9466,-8.54518 -4.8949,-5.55852 -7.5497,-13.35704 -2.6548,-7.79852 -2.6548,-17.42222 0,-8.87704 2.6548,-16.5926 2.6548,-7.79851 7.6326,-13.60592 4.9778,-5.80741 12.1126,-9.12593 7.2178,-3.31852 16.3437,-3.31852 9.7896,0 16.9245,3.56741 7.1348,3.48445 11.7807,9.37482 4.6459,5.8074 6.8859,13.52296 2.323,7.63259 2.323,15.84593 0,8.79407 -2.6548,16.59259 -2.5719,7.71555 -7.5497,13.52296 -4.9777,5.80741 -12.1955,9.20889 -7.1348,3.31852 -16.3437,3.31852 z m 1.1615,-5.47556 q 6.637,0 10.9511,-3.40148 4.3141,-3.48444 6.8029,-8.71111 2.5719,-5.30963 3.5674,-11.53185 0.9956,-6.22222 0.9956,-11.8637 0,-6.88593 -1.3274,-13.77186 -1.2444,-6.88592 -4.0652,-12.36148 -2.8207,-5.55852 -7.3837,-8.96 -4.563,-3.48444 -11.0341,-3.48444 -4.397,0 -7.7155,1.57629 -3.3185,1.5763 -5.8074,4.31408 -2.4889,2.65481 -4.1482,6.22222 -1.6592,3.48444 -2.7378,7.46667 -0.9955,3.89926 -1.4103,7.96444 -0.4148,4.06519 -0.4148,7.79852 0,4.14815 0.4148,8.62815 0.4977,4.48 1.5763,8.79407 1.1614,4.23111 2.9037,8.13037 1.8252,3.89926 4.48,6.80297 2.6548,2.9037 6.1392,4.64592 3.5674,1.74222 8.2134,1.74222 z"
         style="font-style:normal;font-variant:normal;font-weight:normal;font-stretch:normal;font-size:186.66667175px;font-family:'Sitka Banner';-inkscape-font-specification:'Sitka Banner, Normal';font-variant-ligatures:normal;font-variant-caps:normal;font-variant-numeric:normal;font-feature-settings:normal;text-align:center;writing-mode:lr-tb;text-anchor:middle;fill:#c13357;fill-opacity:1"
         id="path1212"
         inkscape:connector-curvature="0" />
      <path
         d="m 1169.3146,686.01484 9.2088,-2.07408 q 1.6593,-0.41481 2.6549,-1.65926 1.0785,-1.24444 1.0785,-3.06963 v -54.50666 q 0,-2.15704 -1.1615,-3.73334 -1.1615,-1.57629 -3.9822,-2.57185 l -7.6326,-2.73778 v -2.24 l 25.8015,-5.72444 v 18.16889 0 q 1.9911,-3.23556 4.397,-6.55408 2.4059,-3.40148 5.4756,-6.05629 3.0696,-2.73778 6.72,-4.48 3.7333,-1.74223 8.2963,-1.74223 2.3229,0 3.9822,0.24889 1.6592,0.16593 2.9866,0.49778 1.3274,0.33185 2.4889,0.82963 1.1615,0.41481 2.5719,0.91259 v 19.41334 h -4.2311 l -2.6548,-6.96889 q -0.3319,-0.82963 -1.4104,-1.41037 -1.0785,-0.66371 -2.4889,-0.99556 -1.3274,-0.41481 -2.9037,-0.58074 -1.4933,-0.24889 -2.7378,-0.24889 -2.9867,0 -5.6415,0.74667 -2.6548,0.74667 -5.0607,2.15704 -2.4059,1.41037 -4.6459,3.5674 -2.1571,2.15704 -4.2311,4.97778 v 49.03111 q 0,1.90815 0.9955,3.1526 1.0785,1.24444 2.7378,1.57629 l 10.7022,2.07408 v 3.73333 h -41.3155 z"
         style="font-style:normal;font-variant:normal;font-weight:normal;font-stretch:normal;font-size:186.66667175px;font-family:'Sitka Banner';-inkscape-font-specification:'Sitka Banner, Normal';font-variant-ligatures:normal;font-variant-caps:normal;font-variant-numeric:normal;font-feature-settings:normal;text-align:center;writing-mode:lr-tb;text-anchor:middle;fill:#c13357;fill-opacity:1"
         id="path1214"
         inkscape:connector-curvature="0" />
    </g>
  </g>
  <g
     inkscape:groupmode="layer"
     id="layer4"
     inkscape:label="ident"
     transform="translate(0,33)">
    <g
       transform="matrix(0.31959419,0,0,0.31959419,-9.2599142,114.64847)"
       id="layer1-75"
       inkscape:label="レイヤー 1">
      <path
         id="rect815-2"
         d="m 174.22867,143.58105 -16.20929,65.91298 h -41.70917 v 9.16098 h 39.45676 l -11.53371,46.90102 h -16.4854 v 9.60351 h 24.89865 l 1.60124,0.39352 31.74319,-129.08058 z m -88.94356,2.49113 -15.039442,53.02015 h -0.07181 v 0.25232 l -21.163422,74.60864 11.653567,3.30386 19.573349,-69.00335 h 40.408318 v -9.16147 H 82.835713 L 95.154518,155.66356 H 115.2039 v -9.59138 z"
         style="opacity:1;fill:#f65140;fill-opacity:1;stroke:none;stroke-width:0.19321732;stroke-linecap:round;stroke-linejoin:round;stroke-miterlimit:4;stroke-dasharray:0.19321733, 0.38643466;stroke-dashoffset:0;stroke-opacity:1;paint-order:normal"
         inkscape:connector-curvature="0" />
    </g>
    <g
       id="g1041"
       transform="matrix(0.969,0,0,0.969,-31.310798,0.93508858)">
      <g
         style="fill:#0f0d0d;fill-opacity:1"
         transform="matrix(2.3691754,0,0,2.3691754,28.968549,-70.9738)"
         id="g1541">
        <g
           id="flowRoot1523"
           style="font-style:normal;font-variant:normal;font-weight:normal;font-stretch:normal;font-size:37.33333206px;line-height:1.25;font-family:sans-serif;-inkscape-font-specification:'sans-serif, Normal';font-variant-ligatures:normal;font-variant-caps:normal;font-variant-numeric:normal;font-feature-settings:normal;text-align:start;letter-spacing:0px;word-spacing:0px;writing-mode:lr-tb;text-anchor:start;fill:#f65140;fill-opacity:1;stroke:none"
           transform="matrix(0.26458333,0,0,0.26458333,-1.4699824,93.147199)"
           aria-label="FunCobal">
          <path
             style="fill:#f65140;fill-opacity:1"
             inkscape:connector-curvature="0"
             id="path964"
             d="m 101.91016,24.951823 h 15.64062 v 3.098958 h -11.95833 v 8.020833 h 10.79166 v 3.098958 h -10.79166 v 12.997395 h -3.68229 z" />
          <path
             style="fill:#f65140;fill-opacity:1"
             inkscape:connector-curvature="0"
             id="path966"
             d="M 120.88672,44.110676 V 31.751302 h 3.35417 v 12.23177 q 0,2.898437 1.1302,4.356771 1.13021,1.440104 3.39063,1.440104 2.71614,0 4.28385,-1.731771 1.58594,-1.731771 1.58594,-4.721354 v -11.57552 h 3.35417 v 20.416665 h -3.35417 v -3.135416 q -1.22135,1.859375 -2.84375,2.770833 -1.60417,0.893229 -3.73698,0.893229 -3.51823,0 -5.34114,-2.1875 -1.82292,-2.1875 -1.82292,-6.398437 z m 8.4401,-12.851562 z" />
          <path
             style="fill:#f65140;fill-opacity:1"
             inkscape:connector-curvature="0"
             id="path968"
             d="m 161.90234,39.845051 v 12.322916 h -3.35417 V 39.954426 q 0,-2.898437 -1.1302,-4.338541 -1.13021,-1.440104 -3.39063,-1.440104 -2.71614,0 -4.28385,1.73177 -1.56771,1.731771 -1.56771,4.721354 v 11.539062 h -3.3724 V 31.751302 h 3.3724 v 3.171874 q 1.20312,-1.841145 2.82552,-2.752604 1.64062,-0.911458 3.77344,-0.911458 3.51823,0 5.32291,2.1875 1.80469,2.169271 1.80469,6.398437 z" />
          <path
             style="fill:#f65140;fill-opacity:1"
             inkscape:connector-curvature="0"
             id="path970"
             d="m 189.15494,27.048177 v 3.882812 q -1.85937,-1.731771 -3.97396,-2.588542 -2.09635,-0.85677 -4.46614,-0.85677 -4.66667,0 -7.14583,2.861979 -2.47917,2.84375 -2.47917,8.239583 0,5.377604 2.47917,8.239583 2.47916,2.84375 7.14583,2.84375 2.36979,0 4.46614,-0.856771 2.11459,-0.856771 3.97396,-2.588542 v 3.846354 q -1.93229,1.3125 -4.10156,1.96875 -2.15104,0.65625 -4.55729,0.65625 -6.17969,0 -9.73438,-3.773437 -3.55468,-3.791667 -3.55468,-10.335937 0,-6.5625 3.55468,-10.335937 3.55469,-3.791667 9.73438,-3.791667 2.44271,0 4.59375,0.65625 2.16927,0.638021 4.0651,1.932292 z" />
          <path
             style="fill:#f65140;fill-opacity:1"
             inkscape:connector-curvature="0"
             id="path972"
             d="m 202.64453,34.102864 q -2.69792,0 -4.26562,2.114583 -1.56771,2.096354 -1.56771,5.760417 0,3.664062 1.54948,5.778645 1.56771,2.096354 4.28385,2.096354 2.67969,0 4.2474,-2.114583 1.5677,-2.114583 1.5677,-5.760416 0,-3.627604 -1.5677,-5.742188 -1.56771,-2.132812 -4.2474,-2.132812 z m 0,-2.84375 q 4.375,0 6.8724,2.84375 2.49739,2.84375 2.49739,7.875 0,5.01302 -2.49739,7.874999 -2.4974,2.84375 -6.8724,2.84375 -4.39323,0 -6.89062,-2.84375 -2.47917,-2.861979 -2.47917,-7.874999 0,-5.03125 2.47917,-7.875 2.49739,-2.84375 6.89062,-2.84375 z" />
          <path
             style="fill:#f65140;fill-opacity:1"
             inkscape:connector-curvature="0"
             id="path974"
             d="m 232.21224,41.977864 q 0,-3.700521 -1.53125,-5.796875 -1.51302,-2.114583 -4.17448,-2.114583 -2.66146,0 -4.19271,2.114583 -1.51302,2.096354 -1.51302,5.796875 0,3.70052 1.51302,5.815104 1.53125,2.096354 4.19271,2.096354 2.66146,0 4.17448,-2.096354 1.53125,-2.114584 1.53125,-5.815104 z M 220.80078,34.85026 q 1.05729,-1.822917 2.66146,-2.697917 1.62239,-0.893229 3.86458,-0.893229 3.71875,0 6.03385,2.953125 2.33334,2.953125 2.33334,7.765625 0,4.8125 -2.33334,7.765624 -2.3151,2.953125 -6.03385,2.953125 -2.24219,0 -3.86458,-0.875 -1.60417,-0.893229 -2.66146,-2.716145 v 3.062499 h -3.3724 V 23.803385 h 3.3724 z" />
          <path
             style="fill:#f65140;fill-opacity:1"
             inkscape:connector-curvature="0"
             id="path976"
             d="m 250.53255,41.904947 q -4.06511,0 -5.63282,0.929687 -1.5677,0.929688 -1.5677,3.171875 0,1.786459 1.16666,2.84375 1.1849,1.039063 3.20834,1.039063 2.78906,0 4.46614,-1.96875 1.69531,-1.986979 1.69531,-5.268229 v -0.747396 z m 6.6901,-1.385417 v 11.648437 h -3.35417 v -3.098958 q -1.14843,1.859375 -2.86198,2.752604 -1.71354,0.875 -4.1927,0.875 -3.13542,0 -4.99479,-1.75 -1.84115,-1.768229 -1.84115,-4.721354 0,-3.445312 2.29687,-5.195312 2.31511,-1.75 6.89063,-1.75 h 4.70312 v -0.328125 q 0,-2.315104 -1.53125,-3.572916 -1.51302,-1.276042 -4.26562,-1.276042 -1.75,0 -3.40885,0.419271 -1.65886,0.419271 -3.19011,1.257812 v -3.098958 q 1.84115,-0.710937 3.57292,-1.057292 1.73177,-0.364583 3.37239,-0.364583 4.42969,0 6.61719,2.296875 2.1875,2.296875 2.1875,6.963541 z" />
          <path
             style="fill:#f65140;fill-opacity:1"
             inkscape:connector-curvature="0"
             id="path978"
             d="m 264.14973,23.803385 h 3.35417 v 28.364582 h -3.35417 z" />
        </g>
        <g
           style="fill:#665555;fill-opacity:1"
           id="g1372">
          <path
             inkscape:connector-curvature="0"
             id="path981"
             style="font-style:normal;font-variant:normal;font-weight:normal;font-stretch:normal;font-size:5.64444447px;line-height:1.25;font-family:sans-serif;-inkscape-font-specification:'sans-serif, Normal';font-variant-ligatures:normal;font-variant-caps:normal;font-variant-numeric:normal;font-feature-settings:normal;text-align:start;letter-spacing:0px;word-spacing:0px;writing-mode:lr-tb;text-anchor:start;fill:#665555;fill-opacity:1;stroke:none;stroke-width:0.26458332"
             d="m 73.64485,102.26037 v 0.42168 h -0.485069 q -0.272852,0 -0.380339,0.11024 -0.104731,0.11024 -0.104731,0.39687 v 0.27285 h 0.835091 v 0.39412 h -0.835091 v 2.69269 h -0.509874 v -2.69269 h -0.485069 v -0.39412 h 0.485069 v -0.21497 q 0,-0.51539 0.239779,-0.74965 0.239778,-0.23702 0.760677,-0.23702 z" />
          <path
             inkscape:connector-curvature="0"
             id="path983"
             style="font-style:normal;font-variant:normal;font-weight:normal;font-stretch:normal;font-size:5.64444447px;line-height:1.25;font-family:sans-serif;-inkscape-font-specification:'sans-serif, Normal';font-variant-ligatures:normal;font-variant-caps:normal;font-variant-numeric:normal;font-feature-settings:normal;text-align:start;letter-spacing:0px;word-spacing:0px;writing-mode:lr-tb;text-anchor:start;fill:#665555;fill-opacity:1;stroke:none;stroke-width:0.26458332"
             d="m 75.469373,104.99715 q -0.614605,0 -0.851628,0.14056 -0.237023,0.14056 -0.237023,0.47956 0,0.27009 0.176389,0.42994 0.179145,0.1571 0.48507,0.1571 0.421679,0 0.675238,-0.29766 0.256316,-0.30041 0.256316,-0.7965 v -0.113 z m 1.01148,-0.20946 v 1.76113 h -0.507118 v -0.46853 q -0.173633,0.28112 -0.432704,0.41617 -0.259072,0.13229 -0.633898,0.13229 -0.474045,0 -0.755165,-0.26459 -0.278364,-0.26734 -0.278364,-0.71382 0,-0.5209 0.347266,-0.78548 0.350022,-0.26459 1.041797,-0.26459 h 0.711068 v -0.0496 q 0,-0.35003 -0.231511,-0.5402 -0.228754,-0.19292 -0.644922,-0.19292 -0.264583,0 -0.515386,0.0634 -0.250803,0.0634 -0.482313,0.19017 v -0.46854 q 0.278363,-0.10748 0.540191,-0.15985 0.261827,-0.0551 0.509874,-0.0551 0.669726,0 1.000455,0.34727 0.33073,0.34726 0.33073,1.05282 z" />
          <path
             inkscape:connector-curvature="0"
             id="path985"
             style="font-style:normal;font-variant:normal;font-weight:normal;font-stretch:normal;font-size:5.64444447px;line-height:1.25;font-family:sans-serif;-inkscape-font-specification:'sans-serif, Normal';font-variant-ligatures:normal;font-variant-caps:normal;font-variant-numeric:normal;font-feature-settings:normal;text-align:start;letter-spacing:0px;word-spacing:0px;writing-mode:lr-tb;text-anchor:start;fill:#665555;fill-opacity:1;stroke:none;stroke-width:0.26458332"
             d="m 79.93146,104.05457 q 0.190169,-0.34175 0.454753,-0.50436 0.264583,-0.16261 0.622873,-0.16261 0.482313,0 0.744141,0.339 0.261827,0.33624 0.261827,0.95911 v 1.86311 H 81.50518 v -1.84657 q 0,-0.44373 -0.157097,-0.6587 -0.157096,-0.21498 -0.479557,-0.21498 -0.394119,0 -0.622873,0.26183 -0.228755,0.26183 -0.228755,0.71382 v 1.7446 h -0.509874 v -1.84657 q 0,-0.44649 -0.157096,-0.6587 -0.157096,-0.21498 -0.485069,-0.21498 -0.388607,0 -0.617362,0.26459 -0.228754,0.26182 -0.228754,0.71106 v 1.7446 h -0.509874 v -3.08681 h 0.509874 v 0.47956 q 0.173633,-0.28387 0.416168,-0.41892 0.242534,-0.13505 0.57602,-0.13505 0.336241,0 0.570507,0.17088 0.237023,0.17087 0.350022,0.49609 z" />
          <path
             inkscape:connector-curvature="0"
             id="path987"
             style="font-style:normal;font-variant:normal;font-weight:normal;font-stretch:normal;font-size:5.64444447px;line-height:1.25;font-family:sans-serif;-inkscape-font-specification:'sans-serif, Normal';font-variant-ligatures:normal;font-variant-caps:normal;font-variant-numeric:normal;font-feature-settings:normal;text-align:start;letter-spacing:0px;word-spacing:0px;writing-mode:lr-tb;text-anchor:start;fill:#665555;fill-opacity:1;stroke:none;stroke-width:0.26458332"
             d="m 83.029291,103.46201 h 0.507118 v 3.08681 h -0.507118 z m 0,-1.20164 h 0.507118 v 0.64216 h -0.507118 z" />
          <path
             inkscape:connector-curvature="0"
             id="path989"
             style="font-style:normal;font-variant:normal;font-weight:normal;font-stretch:normal;font-size:5.64444447px;line-height:1.25;font-family:sans-serif;-inkscape-font-specification:'sans-serif, Normal';font-variant-ligatures:normal;font-variant-caps:normal;font-variant-numeric:normal;font-feature-settings:normal;text-align:start;letter-spacing:0px;word-spacing:0px;writing-mode:lr-tb;text-anchor:start;fill:#665555;fill-opacity:1;stroke:none;stroke-width:0.26458332"
             d="m 84.594741,102.26037 h 0.507118 v 4.28845 h -0.507118 z" />
          <path
             inkscape:connector-curvature="0"
             id="path991"
             style="font-style:normal;font-variant:normal;font-weight:normal;font-stretch:normal;font-size:5.64444447px;line-height:1.25;font-family:sans-serif;-inkscape-font-specification:'sans-serif, Normal';font-variant-ligatures:normal;font-variant-caps:normal;font-variant-numeric:normal;font-feature-settings:normal;text-align:start;letter-spacing:0px;word-spacing:0px;writing-mode:lr-tb;text-anchor:start;fill:#665555;fill-opacity:1;stroke:none;stroke-width:0.26458332"
             d="m 87.444524,106.83545 q -0.214973,0.55122 -0.418923,0.71934 -0.20395,0.16812 -0.545703,0.16812 h -0.405143 v -0.42444 h 0.297656 q 0.209462,0 0.325217,-0.0992 0.115755,-0.0992 0.256315,-0.46853 l 0.09095,-0.23151 -1.248502,-3.0372 h 0.537435 l 0.964626,2.41433 0.964627,-2.41433 h 0.537435 z" />
        </g>
        <g
           style="fill:#665555;fill-opacity:1"
           id="g1381">
          <path
             inkscape:connector-curvature="0"
             id="path993"
             style="font-style:normal;font-variant:normal;font-weight:normal;font-stretch:normal;font-size:5.64444447px;line-height:1.25;font-family:sans-serif;-inkscape-font-specification:'sans-serif, Normal';font-variant-ligatures:normal;font-variant-caps:normal;font-variant-numeric:normal;font-feature-settings:normal;text-align:start;letter-spacing:0px;word-spacing:0px;writing-mode:lr-tb;text-anchor:start;fill:#665555;fill-opacity:1;stroke:none;stroke-width:0.26458332"
             d="m 91.788101,106.0858 v 1.63711 h -0.509874 v -4.2609 h 0.509874 v 0.46854 q 0.159852,-0.27561 0.402387,-0.4079 0.245291,-0.13505 0.584288,-0.13505 0.56224,0 0.912261,0.44649 0.352778,0.44648 0.352778,1.17408 0,0.72761 -0.352778,1.17409 -0.350021,0.44649 -0.912261,0.44649 -0.338997,0 -0.584288,-0.13229 -0.242535,-0.13505 -0.402387,-0.41066 z m 1.725304,-1.07763 q 0,-0.55948 -0.231511,-0.87643 -0.228754,-0.3197 -0.631141,-0.3197 -0.402388,0 -0.633898,0.3197 -0.228754,0.31695 -0.228754,0.87643 0,0.55949 0.228754,0.87919 0.23151,0.31695 0.633898,0.31695 0.402387,0 0.631141,-0.31695 0.231511,-0.3197 0.231511,-0.87919 z" />
          <path
             inkscape:connector-curvature="0"
             id="path995"
             style="font-style:normal;font-variant:normal;font-weight:normal;font-stretch:normal;font-size:5.64444447px;line-height:1.25;font-family:sans-serif;-inkscape-font-specification:'sans-serif, Normal';font-variant-ligatures:normal;font-variant-caps:normal;font-variant-numeric:normal;font-feature-settings:normal;text-align:start;letter-spacing:0px;word-spacing:0px;writing-mode:lr-tb;text-anchor:start;fill:#665555;fill-opacity:1;stroke:none;stroke-width:0.26458332"
             d="m 96.669112,103.93606 q -0.08544,-0.0496 -0.187413,-0.0717 -0.09922,-0.0248 -0.220486,-0.0248 -0.429948,0 -0.661459,0.28112 Q 95.371,104.39904 95.371,104.9227 v 1.62608 h -0.509874 v -3.08681 H 95.371 v 0.47956 q 0.159852,-0.28112 0.416167,-0.41617 0.256315,-0.1378 0.622874,-0.1378 0.05236,0 0.115755,0.008 0.06339,0.006 0.14056,0.0193 z" />
          <path
             inkscape:connector-curvature="0"
             id="path997"
             style="font-style:normal;font-variant:normal;font-weight:normal;font-stretch:normal;font-size:5.64444447px;line-height:1.25;font-family:sans-serif;-inkscape-font-specification:'sans-serif, Normal';font-variant-ligatures:normal;font-variant-caps:normal;font-variant-numeric:normal;font-feature-settings:normal;text-align:start;letter-spacing:0px;word-spacing:0px;writing-mode:lr-tb;text-anchor:start;fill:#665555;fill-opacity:1;stroke:none;stroke-width:0.26458332"
             d="m 98.281418,103.81755 q -0.407899,0 -0.644922,0.3197 -0.237022,0.31695 -0.237022,0.87092 0,0.55398 0.234266,0.87368 0.237023,0.31695 0.647678,0.31695 0.405143,0 0.642166,-0.31971 0.237022,-0.3197 0.237022,-0.87092 0,-0.54846 -0.237022,-0.86816 -0.237023,-0.32246 -0.642166,-0.32246 z m 0,-0.42995 q 0.661458,0 1.039041,0.42995 0.377582,0.42995 0.377582,1.19062 0,0.75792 -0.377582,1.19063 -0.377583,0.42995 -1.039041,0.42995 -0.664214,0 -1.041797,-0.42995 -0.374826,-0.43271 -0.374826,-1.19063 0,-0.76067 0.374826,-1.19062 0.377583,-0.42995 1.041797,-0.42995 z" />
          <path
             inkscape:connector-curvature="0"
             id="path999"
             style="font-style:normal;font-variant:normal;font-weight:normal;font-stretch:normal;font-size:5.64444447px;line-height:1.25;font-family:sans-serif;-inkscape-font-specification:'sans-serif, Normal';font-variant-ligatures:normal;font-variant-caps:normal;font-variant-numeric:normal;font-feature-settings:normal;text-align:start;letter-spacing:0px;word-spacing:0px;writing-mode:lr-tb;text-anchor:start;fill:#665555;fill-opacity:1;stroke:none;stroke-width:0.26458332"
             d="m 100.53589,103.46201 h 0.50712 v 3.14193 q 0,0.5898 -0.226,0.85439 -0.22324,0.26458 -0.72209,0.26458 h -0.192929 v -0.42995 h 0.135049 q 0.28939,0 0.39412,-0.13505 0.10473,-0.13229 0.10473,-0.55397 z m 0,-1.20164 h 0.50712 v 0.64216 h -0.50712 z" />
          <path
             inkscape:connector-curvature="0"
             id="path1001"
             style="font-style:normal;font-variant:normal;font-weight:normal;font-stretch:normal;font-size:5.64444447px;line-height:1.25;font-family:sans-serif;-inkscape-font-specification:'sans-serif, Normal';font-variant-ligatures:normal;font-variant-caps:normal;font-variant-numeric:normal;font-feature-settings:normal;text-align:start;letter-spacing:0px;word-spacing:0px;writing-mode:lr-tb;text-anchor:start;fill:#665555;fill-opacity:1;stroke:none;stroke-width:0.26458332"
             d="m 104.74166,104.87864 v 0.24805 h -2.33164 q 0.0331,0.52365 0.31419,0.79926 0.28388,0.27285 0.78824,0.27285 0.29214,0 0.565,-0.0717 0.2756,-0.0717 0.5457,-0.21497 v 0.47955 q -0.27285,0.11576 -0.55948,0.17639 -0.28664,0.0606 -0.58154,0.0606 -0.73863,0 -1.17133,-0.42995 -0.42995,-0.42995 -0.42995,-1.16307 0,-0.75792 0.4079,-1.20164 0.41066,-0.44649 1.10519,-0.44649 0.62287,0 0.98392,0.40239 0.3638,0.39963 0.3638,1.08865 z m -0.50712,-0.14883 q -0.006,-0.41617 -0.23426,-0.66421 -0.226,-0.24805 -0.60083,-0.24805 -0.42443,0 -0.68075,0.23978 -0.25356,0.23978 -0.29214,0.67524 z" />
          <path
             inkscape:connector-curvature="0"
             id="path1003"
             style="font-style:normal;font-variant:normal;font-weight:normal;font-stretch:normal;font-size:5.64444447px;line-height:1.25;font-family:sans-serif;-inkscape-font-specification:'sans-serif, Normal';font-variant-ligatures:normal;font-variant-caps:normal;font-variant-numeric:normal;font-feature-settings:normal;text-align:start;letter-spacing:0px;word-spacing:0px;writing-mode:lr-tb;text-anchor:start;fill:#665555;fill-opacity:1;stroke:none;stroke-width:0.26458332"
             d="m 107.79539,103.58053 v 0.47404 q -0.21497,-0.11851 -0.4327,-0.17639 -0.21498,-0.0606 -0.43546,-0.0606 -0.49334,0 -0.76619,0.31419 -0.27285,0.31144 -0.27285,0.87643 0,0.565 0.27285,0.87919 0.27285,0.31144 0.76619,0.31144 0.22048,0 0.43546,-0.0579 0.21773,-0.0606 0.4327,-0.17914 v 0.46853 q -0.21222,0.0992 -0.44097,0.14883 -0.226,0.0496 -0.48231,0.0496 -0.69729,0 -1.10795,-0.43822 -0.41065,-0.43822 -0.41065,-1.18236 0,-0.75516 0.41341,-1.18787 0.41617,-0.4327 1.13826,-0.4327 0.23427,0 0.45751,0.0496 0.22324,0.0469 0.4327,0.14332 z" />
          <path
             inkscape:connector-curvature="0"
             id="path1005"
             style="font-style:normal;font-variant:normal;font-weight:normal;font-stretch:normal;font-size:5.64444447px;line-height:1.25;font-family:sans-serif;-inkscape-font-specification:'sans-serif, Normal';font-variant-ligatures:normal;font-variant-caps:normal;font-variant-numeric:normal;font-feature-settings:normal;text-align:start;letter-spacing:0px;word-spacing:0px;writing-mode:lr-tb;text-anchor:start;fill:#665555;fill-opacity:1;stroke:none;stroke-width:0.26458332"
             d="m 109.18446,102.58558 v 0.87643 h 1.04455 v 0.39412 h -1.04455 v 1.6757 q 0,0.37758 0.10197,0.48507 0.10473,0.10748 0.42168,0.10748 h 0.5209 v 0.42444 h -0.5209 q -0.58704,0 -0.81028,-0.21773 -0.22325,-0.22049 -0.22325,-0.79926 v -1.6757 h -0.37207 v -0.39412 h 0.37207 v -0.87643 z" />
        </g>
      </g>
      <path
         inkscape:connector-curvature="0"
         id="path936"
         d="m 101.76494,189.88189 v 6.36477 h 6.36475 v 1.94257 h -6.36475 v 6.36473 h -1.919702 v -6.36473 h -6.36476 v -1.94257 h 6.36476 v -6.36477 z"
         style="font-style:normal;font-variant:normal;font-weight:normal;font-stretch:normal;font-size:37.33333206px;line-height:1.25;font-family:sans-serif;-inkscape-font-specification:'sans-serif, Normal';font-variant-ligatures:normal;font-variant-caps:normal;font-variant-numeric:normal;font-feature-settings:normal;text-align:start;letter-spacing:0px;word-spacing:0px;writing-mode:lr-tb;text-anchor:start;fill:#0f0d0d;fill-opacity:1;stroke:none;stroke-width:0.62684453" />
      <g
         id="g993">
        <g
           transform="matrix(0.73052822,0,0,0.73052822,79.12367,-5.1051087)"
           id="g1419"
           style="fill:#ffdc0f;fill-opacity:0.94117647">
          <path
             style="font-style:normal;font-variant:normal;font-weight:normal;font-stretch:normal;font-size:37.33333206px;line-height:1.25;font-family:sans-serif;-inkscape-font-specification:'sans-serif, Normal';font-variant-ligatures:normal;font-variant-caps:normal;font-variant-numeric:normal;font-feature-settings:normal;text-align:start;letter-spacing:0px;word-spacing:0px;writing-mode:lr-tb;text-anchor:start;fill:#ffdc0f;fill-opacity:0.94117647;stroke:none;stroke-width:0.8580699"
             d="m 65.040087,266.51213 v 3.33172 q -1.595478,-1.48598 -3.409936,-2.22115 -1.798815,-0.73517 -3.832269,-0.73517 -4.00432,0 -6.131621,2.45578 -2.127301,2.44014 -2.127301,7.07014 0,4.61436 2.127301,7.07014 2.127301,2.44013 6.131621,2.44013 2.033454,0 3.832269,-0.73517 1.814458,-0.73517 3.409936,-2.22115 v 3.30044 q -1.65804,1.12622 -3.519425,1.68933 -1.845752,0.56311 -3.910482,0.56311 -5.302598,0 -8.35277,-3.23787 -3.050173,-3.25352 -3.050173,-8.86896 0,-5.63109 3.050173,-8.86896 3.050172,-3.25351 8.35277,-3.25351 2.096016,0 3.941758,0.56311 1.861386,0.54746 3.488149,1.65804 z"
             id="path938"
             inkscape:connector-curvature="0" />
          <path
             style="font-style:normal;font-variant:normal;font-weight:normal;font-stretch:normal;font-size:37.33333206px;line-height:1.25;font-family:sans-serif;-inkscape-font-specification:'sans-serif, Normal';font-variant-ligatures:normal;font-variant-caps:normal;font-variant-numeric:normal;font-feature-settings:normal;text-align:start;letter-spacing:0px;word-spacing:0px;writing-mode:lr-tb;text-anchor:start;fill:#ffdc0f;fill-opacity:0.94117647;stroke:none;stroke-width:0.8580699"
             d="m 84.389109,277.49274 v 10.57392 h -2.878104 v -10.48007 q 0,-2.48706 -0.969799,-3.72277 -0.9698,-1.23571 -2.909398,-1.23571 -2.330638,0 -3.675843,1.48598 -1.345205,1.48598 -1.345205,4.05125 v 9.90132 h -2.893746 v -24.33879 h 2.893746 v 9.54156 q 1.03237,-1.57983 2.424494,-2.36193 1.407775,-0.78209 3.237875,-0.78209 3.018888,0 4.567438,1.87702 1.548542,1.86139 1.548542,5.49031 z"
             id="path940"
             inkscape:connector-curvature="0" />
          <path
             style="font-style:normal;font-variant:normal;font-weight:normal;font-stretch:normal;font-size:37.33333206px;line-height:1.25;font-family:sans-serif;-inkscape-font-specification:'sans-serif, Normal';font-variant-ligatures:normal;font-variant-caps:normal;font-variant-numeric:normal;font-feature-settings:normal;text-align:start;letter-spacing:0px;word-spacing:0px;writing-mode:lr-tb;text-anchor:start;fill:#ffdc0f;fill-opacity:0.94117647;stroke:none;stroke-width:0.8580699"
             d="m 105.14591,278.58767 v 1.40777 H 91.912871 q 0.187703,2.97196 1.783173,4.53615 1.61112,1.54855 4.47359,1.54855 1.65804,0 3.206586,-0.40669 1.56419,-0.40669 3.0971,-1.22007 v 2.72169 q -1.54855,0.65696 -3.17531,1.00109 -1.626754,0.34412 -3.300445,0.34412 -4.192023,0 -6.647802,-2.44014 -2.440136,-2.44013 -2.440136,-6.60088 0,-4.30152 2.315004,-6.81987 2.330638,-2.53398 6.272396,-2.53398 3.535073,0 5.584153,2.28371 2.06473,2.26808 2.06473,6.17855 z m -2.8781,-0.84466 q -0.0313,-2.36193 -1.32956,-3.7697 -1.282636,-1.40777 -3.409937,-1.40777 -2.408851,0 -3.863546,1.36085 -1.43906,1.36084 -1.658048,3.83226 z"
             id="path942"
             inkscape:connector-curvature="0" />
          <path
             style="font-style:normal;font-variant:normal;font-weight:normal;font-stretch:normal;font-size:37.33333206px;line-height:1.25;font-family:sans-serif;-inkscape-font-specification:'sans-serif, Normal';font-variant-ligatures:normal;font-variant-caps:normal;font-variant-numeric:normal;font-feature-settings:normal;text-align:start;letter-spacing:0px;word-spacing:0px;writing-mode:lr-tb;text-anchor:start;fill:#ffdc0f;fill-opacity:0.94117647;stroke:none;stroke-width:0.8580699"
             d="m 121.03809,271.06392 v 2.72169 q -1.22007,-0.62568 -2.53399,-0.93851 -1.31392,-0.31284 -2.72169,-0.31284 -2.14294,0 -3.22223,0.65696 -1.06365,0.65696 -1.06365,1.97088 0,1.00108 0.76646,1.57983 0.76644,0.56311 3.08145,1.07929 l 0.98544,0.21899 q 3.0658,0.65696 4.34845,1.86138 1.29827,1.18879 1.29827,3.33173 0,2.44013 -1.93959,3.86355 -1.92396,1.42341 -5.30261,1.42341 -1.40777,0 -2.94068,-0.28156 -1.51726,-0.26591 -3.20659,-0.81337 v -2.97197 q 1.59548,0.82903 3.14402,1.25136 1.54855,0.40669 3.06582,0.40669 2.03345,0 3.12838,-0.68825 1.09493,-0.70388 1.09493,-1.97088 0,-1.17314 -0.79773,-1.79882 -0.7821,-0.62567 -3.45687,-1.20442 l -1.00107,-0.23463 q -2.67477,-0.56311 -3.86356,-1.72061 -1.18878,-1.17314 -1.18878,-3.20659 0,-2.47142 1.75189,-3.81662 1.7519,-1.3452 4.97413,-1.3452 1.59547,0 3.00325,0.23462 1.40776,0.23463 2.59655,0.70389 z"
             id="path944"
             inkscape:connector-curvature="0" />
        </g>
        <g
           transform="matrix(0.73052822,0,0,0.73052822,79.12367,-5.1051087)"
           id="g1413"
           style="fill:#665555;fill-opacity:1">
          <g
             id="text1533-7"
             style="font-style:normal;font-variant:normal;font-weight:normal;font-stretch:normal;font-size:5.64444447px;line-height:1.25;font-family:sans-serif;-inkscape-font-specification:'sans-serif, Normal';font-variant-ligatures:normal;font-variant-caps:normal;font-variant-numeric:normal;font-feature-settings:normal;text-align:start;letter-spacing:0px;word-spacing:0px;writing-mode:lr-tb;text-anchor:start;fill:#665555;fill-opacity:1;stroke:none;stroke-width:0.26458332"
             aria-label="project"
             transform="matrix(3.2430989,0,0,3.2430989,-45.533784,-58.132292)">
            <path
               inkscape:connector-curvature="0"
               id="path949"
               style="font-style:normal;font-variant:normal;font-weight:normal;font-stretch:normal;font-size:5.64444447px;font-family:sans-serif;-inkscape-font-specification:'sans-serif, Normal';font-variant-ligatures:normal;font-variant-caps:normal;font-variant-numeric:normal;font-feature-settings:normal;text-align:start;writing-mode:lr-tb;text-anchor:start;fill:#665555;fill-opacity:1;stroke-width:0.26458332"
               d="m 68.608678,106.08579 v 1.63711 h -0.509874 v -4.26089 h 0.509874 v 0.46853 q 0.159853,-0.27561 0.402388,-0.4079 0.24529,-0.13505 0.584288,-0.13505 0.562239,0 0.912261,0.44649 0.352778,0.44648 0.352778,1.17409 0,0.7276 -0.352778,1.17408 -0.350022,0.44649 -0.912261,0.44649 -0.338998,0 -0.584288,-0.13229 -0.242535,-0.13505 -0.402388,-0.41066 z m 1.725304,-1.07762 q 0,-0.55949 -0.23151,-0.87644 -0.228755,-0.3197 -0.631142,-0.3197 -0.402387,0 -0.633897,0.3197 -0.228755,0.31695 -0.228755,0.87644 0,0.55948 0.228755,0.87918 0.23151,0.31695 0.633897,0.31695 0.402387,0 0.631142,-0.31695 0.23151,-0.3197 0.23151,-0.87918 z" />
            <path
               inkscape:connector-curvature="0"
               id="path951"
               style="font-style:normal;font-variant:normal;font-weight:normal;font-stretch:normal;font-size:5.64444447px;font-family:sans-serif;-inkscape-font-specification:'sans-serif, Normal';font-variant-ligatures:normal;font-variant-caps:normal;font-variant-numeric:normal;font-feature-settings:normal;text-align:start;writing-mode:lr-tb;text-anchor:start;fill:#665555;fill-opacity:1;stroke-width:0.26458332"
               d="m 73.48969,103.93605 q -0.08544,-0.0496 -0.187414,-0.0717 -0.09922,-0.0248 -0.220486,-0.0248 -0.429948,0 -0.661458,0.28112 -0.228754,0.27836 -0.228754,0.80202 v 1.62608 h -0.509874 v -3.0868 h 0.509874 v 0.47955 q 0.159852,-0.28112 0.416167,-0.41616 0.256315,-0.13781 0.622873,-0.13781 0.05237,0 0.115756,0.008 0.06339,0.006 0.14056,0.0193 z" />
            <path
               inkscape:connector-curvature="0"
               id="path953"
               style="font-style:normal;font-variant:normal;font-weight:normal;font-stretch:normal;font-size:5.64444447px;font-family:sans-serif;-inkscape-font-specification:'sans-serif, Normal';font-variant-ligatures:normal;font-variant-caps:normal;font-variant-numeric:normal;font-feature-settings:normal;text-align:start;writing-mode:lr-tb;text-anchor:start;fill:#665555;fill-opacity:1;stroke-width:0.26458332"
               d="m 75.101995,103.81754 q -0.4079,0 -0.644922,0.31971 -0.237023,0.31694 -0.237023,0.87092 0,0.55397 0.234267,0.87367 0.237022,0.31695 0.647678,0.31695 0.405143,0 0.642165,-0.3197 0.237023,-0.31971 0.237023,-0.87092 0,-0.54846 -0.237023,-0.86817 -0.237022,-0.32246 -0.642165,-0.32246 z m 0,-0.42995 q 0.661458,0 1.03904,0.42995 0.377583,0.42995 0.377583,1.19063 0,0.75792 -0.377583,1.19062 -0.377582,0.42995 -1.03904,0.42995 -0.664215,0 -1.041797,-0.42995 -0.374827,-0.4327 -0.374827,-1.19062 0,-0.76068 0.374827,-1.19063 0.377582,-0.42995 1.041797,-0.42995 z" />
            <path
               inkscape:connector-curvature="0"
               id="path955"
               style="font-style:normal;font-variant:normal;font-weight:normal;font-stretch:normal;font-size:5.64444447px;font-family:sans-serif;-inkscape-font-specification:'sans-serif, Normal';font-variant-ligatures:normal;font-variant-caps:normal;font-variant-numeric:normal;font-feature-settings:normal;text-align:start;writing-mode:lr-tb;text-anchor:start;fill:#665555;fill-opacity:1;stroke-width:0.26458332"
               d="m 77.356465,103.46201 h 0.507118 v 3.14192 q 0,0.5898 -0.225998,0.85439 -0.223243,0.26458 -0.722092,0.26458 h -0.192926 v -0.42995 h 0.135048 q 0.289388,0 0.394119,-0.13504 0.104731,-0.1323 0.104731,-0.55398 z m 0,-1.20165 h 0.507118 v 0.64216 h -0.507118 z" />
            <path
               inkscape:connector-curvature="0"
               id="path957"
               style="font-style:normal;font-variant:normal;font-weight:normal;font-stretch:normal;font-size:5.64444447px;font-family:sans-serif;-inkscape-font-specification:'sans-serif, Normal';font-variant-ligatures:normal;font-variant-caps:normal;font-variant-numeric:normal;font-feature-settings:normal;text-align:start;writing-mode:lr-tb;text-anchor:start;fill:#665555;fill-opacity:1;stroke-width:0.26458332"
               d="m 81.562238,104.87863 v 0.24805 h -2.331641 q 0.03307,0.52365 0.314193,0.79926 0.283876,0.27285 0.788238,0.27285 0.292144,0 0.564995,-0.0717 0.275608,-0.0716 0.545703,-0.21497 v 0.47956 q -0.272851,0.11575 -0.559483,0.17639 -0.286632,0.0606 -0.581532,0.0606 -0.738629,0 -1.171333,-0.42995 -0.429948,-0.42995 -0.429948,-1.16306 0,-0.75792 0.4079,-1.20165 0.410655,-0.44649 1.105186,-0.44649 0.622874,0 0.98392,0.40239 0.363802,0.39963 0.363802,1.08865 z M 81.05512,104.7298 q -0.0055,-0.41617 -0.234267,-0.66421 -0.225998,-0.24805 -0.600825,-0.24805 -0.424435,0 -0.68075,0.23978 -0.25356,0.23978 -0.292145,0.67524 z" />
            <path
               inkscape:connector-curvature="0"
               id="path959"
               style="font-style:normal;font-variant:normal;font-weight:normal;font-stretch:normal;font-size:5.64444447px;font-family:sans-serif;-inkscape-font-specification:'sans-serif, Normal';font-variant-ligatures:normal;font-variant-caps:normal;font-variant-numeric:normal;font-feature-settings:normal;text-align:start;writing-mode:lr-tb;text-anchor:start;fill:#665555;fill-opacity:1;stroke-width:0.26458332"
               d="m 84.61597,103.58052 v 0.47404 q -0.214974,-0.11851 -0.432704,-0.17639 -0.214974,-0.0606 -0.43546,-0.0606 -0.493338,0 -0.766189,0.31419 -0.272852,0.31144 -0.272852,0.87644 0,0.56499 0.272852,0.87918 0.272851,0.31144 0.766189,0.31144 0.220486,0 0.43546,-0.0579 0.21773,-0.0606 0.432704,-0.17914 v 0.46853 q -0.212218,0.0992 -0.440972,0.14883 -0.225998,0.0496 -0.482313,0.0496 -0.697288,0 -1.107943,-0.43822 -0.410655,-0.43821 -0.410655,-1.18235 0,-0.75517 0.413411,-1.18787 0.416168,-0.43271 1.13826,-0.43271 0.234266,0 0.457508,0.0496 0.223242,0.0469 0.432704,0.14332 z" />
            <path
               inkscape:connector-curvature="0"
               id="path961"
               style="font-style:normal;font-variant:normal;font-weight:normal;font-stretch:normal;font-size:5.64444447px;font-family:sans-serif;-inkscape-font-specification:'sans-serif, Normal';font-variant-ligatures:normal;font-variant-caps:normal;font-variant-numeric:normal;font-feature-settings:normal;text-align:start;writing-mode:lr-tb;text-anchor:start;fill:#665555;fill-opacity:1;stroke-width:0.26458332"
               d="m 86.005033,102.58558 v 0.87643 h 1.044553 v 0.39412 h -1.044553 v 1.67569 q 0,0.37758 0.101975,0.48507 0.104731,0.10749 0.421679,0.10749 h 0.520899 v 0.42443 h -0.520899 q -0.587044,0 -0.810286,-0.21773 -0.223242,-0.22048 -0.223242,-0.79926 v -1.67569 h -0.372071 v -0.39412 h 0.372071 v -0.87643 z" />
          </g>
          <g
             aria-label="lang"
             transform="matrix(0.46634676,0,0,0.46634676,-106.08426,3.6651564)"
             style="font-style:normal;font-weight:normal;font-size:40px;line-height:1.25;font-family:sans-serif;letter-spacing:0px;word-spacing:0px;fill:#665555;fill-opacity:1;stroke:none"
             id="flowRoot1383">
            <path
               d="m 508.52734,578.47266 h 3.59375 v 30.39062 h -3.59375 z"
               id="path1391"
               inkscape:connector-curvature="0"
               style="fill:#665555;fill-opacity:1" />
            <path
               d="m 529.5625,597.86719 q -4.35547,0 -6.03516,0.99609 -1.67968,0.99609 -1.67968,3.39844 0,1.91406 1.25,3.04687 1.26953,1.11328 3.4375,1.11328 2.98828,0 4.78515,-2.10937 1.81641,-2.12891 1.81641,-5.64453 v -0.80078 z m 7.16797,-1.48438 v 12.48047 h -3.59375 v -3.32031 q -1.23047,1.99219 -3.06641,2.94922 -1.83594,0.9375 -4.49219,0.9375 -3.35937,0 -5.35156,-1.875 -1.97265,-1.89453 -1.97265,-5.0586 0,-3.6914 2.46093,-5.5664 2.48047,-1.875 7.38282,-1.875 h 5.03906 v -0.35157 q 0,-2.48046 -1.64063,-3.82812 -1.62109,-1.36719 -4.57031,-1.36719 -1.875,0 -3.65234,0.44922 -1.77735,0.44922 -3.41797,1.34766 v -3.32032 q 1.97265,-0.76171 3.82812,-1.13281 1.85547,-0.39062 3.61328,-0.39062 4.7461,0 7.08985,2.46093 2.34375,2.46094 2.34375,7.46094 z"
               id="path1393"
               inkscape:connector-curvature="0"
               style="fill:#665555;fill-opacity:1" />
            <path
               d="m 562.33594,595.66016 v 13.20312 h -3.59375 v -13.08594 q 0,-3.10547 -1.21094,-4.64843 -1.21094,-1.54297 -3.63281,-1.54297 -2.91016,0 -4.58985,1.85547 -1.67968,1.85546 -1.67968,5.05859 v 12.36328 h -3.61329 v -21.875 h 3.61329 v 3.39844 q 1.28906,-1.97266 3.02734,-2.94922 1.75781,-0.97656 4.04297,-0.97656 3.76953,0 5.70312,2.34375 1.9336,2.32422 1.9336,6.85547 z"
               id="path1395"
               inkscape:connector-curvature="0"
               style="fill:#665555;fill-opacity:1" />
            <path
               d="m 583.9375,597.67187 q 0,-3.90625 -1.62109,-6.05468 -1.60157,-2.14844 -4.51172,-2.14844 -2.89063,0 -4.51172,2.14844 -1.60156,2.14843 -1.60156,6.05468 0,3.88672 1.60156,6.03516 1.62109,2.14844 4.51172,2.14844 2.91015,0 4.51172,-2.14844 1.62109,-2.14844 1.62109,-6.03516 z m 3.59375,8.47657 q 0,5.58593 -2.48047,8.30078 -2.48047,2.73437 -7.59766,2.73437 -1.89453,0 -3.57421,-0.29297 -1.67969,-0.27343 -3.26172,-0.85937 v -3.49609 q 1.58203,0.85937 3.125,1.26953 1.54297,0.41015 3.14453,0.41015 3.53515,0 5.29297,-1.85547 1.75781,-1.83593 1.75781,-5.5664 v -1.77735 q -1.11328,1.9336 -2.85156,2.89063 -1.73828,0.95703 -4.16016,0.95703 -4.02344,0 -6.48437,-3.06641 -2.46094,-3.0664 -2.46094,-8.125 0,-5.07812 2.46094,-8.14453 2.46093,-3.0664 6.48437,-3.0664 2.42188,0 4.16016,0.95703 1.73828,0.95703 2.85156,2.89062 v -3.32031 h 3.59375 z"
               id="path1397"
               inkscape:connector-curvature="0"
               style="fill:#665555;fill-opacity:1" />
          </g>
        </g>
      </g>
    </g>
  </g>
</svg>
