<?xml version="1.0" encoding="UTF-8" standalone="no"?>
<!-- Created with Inkscape (http://www.inkscape.org/) -->

<svg
   xmlns:dc="http://purl.org/dc/elements/1.1/"
   xmlns:cc="http://creativecommons.org/ns#"
   xmlns:rdf="http://www.w3.org/1999/02/22-rdf-syntax-ns#"
   xmlns:svg="http://www.w3.org/2000/svg"
   xmlns="http://www.w3.org/2000/svg"
   xmlns:sodipodi="http://sodipodi.sourceforge.net/DTD/sodipodi-0.dtd"
   xmlns:inkscape="http://www.inkscape.org/namespaces/inkscape"
   width="297mm"
   height="181mm"
   viewBox="0 0 297 181"
   version="1.1"
   id="svg8"
   inkscape:version="0.92.4 (5da689c313, 2019-01-14)"
   sodipodi:docname="clink_3.svg"
   inkscape:export-filename="D:\ResDev\_Orgs\DevelopersPackages.org\DevPack_web\org.dev-pack.plink\assets\logos\clink3.png"
   inkscape:export-xdpi="247.71001"
   inkscape:export-ydpi="247.71001">
  <defs
     id="defs2" />
  <sodipodi:namedview
     id="base"
     pagecolor="#ffffff"
     bordercolor="#666666"
     borderopacity="1.0"
     inkscape:pageopacity="0.0"
     inkscape:pageshadow="2"
     inkscape:zoom="0.49497475"
     inkscape:cx="418.79984"
     inkscape:cy="688.83066"
     inkscape:document-units="mm"
     inkscape:current-layer="layer3"
     showgrid="false"
     inkscape:window-width="1822"
     inkscape:window-height="1051"
     inkscape:window-x="1689"
     inkscape:window-y="-9"
     inkscape:window-maximized="1" />
  <metadata
     id="metadata5">
    <rdf:RDF>
      <cc:Work
         rdf:about="">
        <dc:format>image/svg+xml</dc:format>
        <dc:type
           rdf:resource="http://purl.org/dc/dcmitype/StillImage" />
        <dc:title></dc:title>
      </cc:Work>
    </rdf:RDF>
  </metadata>
  <g
     inkscape:label="cheers"
     inkscape:groupmode="layer"
     id="layer1"
     transform="translate(0,-116)" />
  <g
     inkscape:groupmode="layer"
     id="layer3"
     inkscape:label="lambda"
     style="display:inline"
     transform="translate(0,-29)">
    <path
       inkscape:connector-curvature="0"
       style="display:inline;fill:#c13357;fill-opacity:1;stroke:none;stroke-width:0.26458332px;stroke-linecap:butt;stroke-linejoin:miter;stroke-opacity:1"
       d="M 103.08278,37.499076 C 37.619201,99.403796 24.463551,128.97003 18.226951,150.51468 c -2.48047,7.15793 -3.89759,7.44097 -7.06314,10.18129 l -3.7563606,2.81119 c 0.96856,5.55152 4.4406506,7.07902 6.5789306,7.79178 l 3.34295,-3.39773 c 3.28366,-3.26004 4.96086,-6.28348 10.81949,-7.46466 33.92336,-7.37054 62.7442,-26.17507 118.590219,-75.690134 -17.00893,-22.39519 -25.13541,-29.86043 -43.65626,-47.24734 z m -0.0946,5.083928 c 21.0722,18.237362 21.35597,21.468972 38.74288,41.974282 C 126.98999,97.881015 112.98552,109.0314 112.98552,109.0314 L 43.532381,108.36994 C 72.315271,68.871186 102.98821,42.583004 102.98821,42.583004 Z"
       id="path842"
       sodipodi:nodetypes="ccccccccccccccc"
       inkscape:export-xdpi="247.71001"
       inkscape:export-ydpi="247.71001" />
    <path
       inkscape:connector-curvature="0"
       id="path837"
       style="font-style:normal;font-variant:normal;font-weight:500;font-stretch:normal;font-size:346.66668701px;line-height:1.25;font-family:'BIZ UDMincho';-inkscape-font-specification:'BIZ UDMincho, Medium';font-variant-ligatures:normal;font-variant-caps:normal;font-variant-numeric:normal;font-feature-settings:normal;text-align:start;letter-spacing:0px;word-spacing:0px;writing-mode:lr-tb;text-anchor:start;display:inline;fill:#c13357;fill-opacity:1;stroke:none;stroke-width:0.28089392"
       d="m 154.15584,118.07715 v -4.5682 q 0,-6.80754 -1.71627,-9.76345 -1.81722,-3.0007 -6.15833,-3.0007 -4.69448,0 -8.73273,6.49405 l -3.43253,-1.92582 q 2.57438,-5.24003 6.25928,-8.375092 3.83635,-3.269422 7.9756,-3.269422 6.05736,0 9.03559,5.6431 1.96865,3.717304 1.96865,9.046894 v 25.30425 q 0,13.92852 1.46385,18.94458 2.12008,7.21059 7.8746,7.21059 6.66314,0 11.76146,-9.00204 l 3.07916,2.59761 q -6.6631,13.6598 -16.7083,13.6598 -6.5117,0 -10.24705,-6.58358 -3.43258,-6.04614 -3.43258,-16.70527 v -13.39108 l -23.87619,34.84369 h -8.98511 z" />
    <path
       inkscape:connector-curvature="0"
       style="display:inline;fill:#c13357;fill-opacity:1;stroke:none;stroke-width:0.26458332px;stroke-linecap:butt;stroke-linejoin:miter;stroke-opacity:1"
       d="m 194.09948,36.969892 c 65.46357,61.904717 78.61921,91.470958 84.85581,113.015608 2.48047,7.15793 3.89758,7.44097 7.06313,10.18129 l 3.75637,2.81119 c -0.96856,5.55152 -4.44066,7.07902 -6.57895,7.79178 l -3.34293,-3.39773 c -3.28366,-3.26004 -4.96085,-6.28348 -10.81949,-7.46466 -33.92336,-7.37054 -62.7442,-26.17507 -118.59018,-75.690134 17.00893,-22.3952 25.13541,-29.86043 43.65624,-47.247344 z m 0.0946,5.083928 c -21.07219,18.237356 -21.35595,21.468966 -38.74285,41.974276 14.74107,13.323732 28.74551,24.474124 28.74551,24.474124 l 69.45314,-0.66147 C 224.86698,68.341996 194.19405,42.05382 194.19405,42.05382 Z"
       id="path842-6"
       sodipodi:nodetypes="ccccccccccccccc"
       inkscape:export-xdpi="247.71001"
       inkscape:export-ydpi="247.71001" />
  </g>
  <g
     inkscape:groupmode="layer"
     id="layer4"
     inkscape:label="ident"
     transform="translate(0,-29)">
    <g
       id="g1147"
       transform="translate(4.1577381,23.207746)">
      <g
         aria-label="FunCobal"
         transform="matrix(0.97410844,0,0,0.97410844,-97.867366,132.02166)"
         style="font-style:normal;font-variant:normal;font-weight:normal;font-stretch:normal;font-size:37.33333206px;line-height:1.25;font-family:sans-serif;-inkscape-font-specification:'sans-serif, Normal';font-variant-ligatures:normal;font-variant-caps:normal;font-variant-numeric:normal;font-feature-settings:normal;text-align:start;letter-spacing:0px;word-spacing:0px;writing-mode:lr-tb;text-anchor:start;fill:#c13357;fill-opacity:1;stroke:none"
         id="flowRoot1523">
        <path
           d="m 101.91016,24.951823 h 15.64062 v 3.098958 h -11.95833 v 8.020833 h 10.79166 v 3.098958 h -10.79166 v 12.997395 h -3.68229 z"
           id="path964"
           inkscape:connector-curvature="0"
           style="fill:#c13357;fill-opacity:1" />
        <path
           d="M 120.88672,44.110676 V 31.751302 h 3.35417 v 12.23177 q 0,2.898437 1.1302,4.356771 1.13021,1.440104 3.39063,1.440104 2.71614,0 4.28385,-1.731771 1.58594,-1.731771 1.58594,-4.721354 v -11.57552 h 3.35417 v 20.416665 h -3.35417 v -3.135416 q -1.22135,1.859375 -2.84375,2.770833 -1.60417,0.893229 -3.73698,0.893229 -3.51823,0 -5.34114,-2.1875 -1.82292,-2.1875 -1.82292,-6.398437 z m 8.4401,-12.851562 z"
           id="path966"
           inkscape:connector-curvature="0"
           style="fill:#c13357;fill-opacity:1" />
        <path
           d="m 161.90234,39.845051 v 12.322916 h -3.35417 V 39.954426 q 0,-2.898437 -1.1302,-4.338541 -1.13021,-1.440104 -3.39063,-1.440104 -2.71614,0 -4.28385,1.73177 -1.56771,1.731771 -1.56771,4.721354 v 11.539062 h -3.3724 V 31.751302 h 3.3724 v 3.171874 q 1.20312,-1.841145 2.82552,-2.752604 1.64062,-0.911458 3.77344,-0.911458 3.51823,0 5.32291,2.1875 1.80469,2.169271 1.80469,6.398437 z"
           id="path968"
           inkscape:connector-curvature="0"
           style="fill:#c13357;fill-opacity:1" />
        <path
           d="m 189.15494,27.048177 v 3.882812 q -1.85937,-1.731771 -3.97396,-2.588542 -2.09635,-0.85677 -4.46614,-0.85677 -4.66667,0 -7.14583,2.861979 -2.47917,2.84375 -2.47917,8.239583 0,5.377604 2.47917,8.239583 2.47916,2.84375 7.14583,2.84375 2.36979,0 4.46614,-0.856771 2.11459,-0.856771 3.97396,-2.588542 v 3.846354 q -1.93229,1.3125 -4.10156,1.96875 -2.15104,0.65625 -4.55729,0.65625 -6.17969,0 -9.73438,-3.773437 -3.55468,-3.791667 -3.55468,-10.335937 0,-6.5625 3.55468,-10.335937 3.55469,-3.791667 9.73438,-3.791667 2.44271,0 4.59375,0.65625 2.16927,0.638021 4.0651,1.932292 z"
           id="path970"
           inkscape:connector-curvature="0"
           style="fill:#c13357;fill-opacity:1" />
        <path
           d="m 202.64453,34.102864 q -2.69792,0 -4.26562,2.114583 -1.56771,2.096354 -1.56771,5.760417 0,3.664062 1.54948,5.778645 1.56771,2.096354 4.28385,2.096354 2.67969,0 4.2474,-2.114583 1.5677,-2.114583 1.5677,-5.760416 0,-3.627604 -1.5677,-5.742188 -1.56771,-2.132812 -4.2474,-2.132812 z m 0,-2.84375 q 4.375,0 6.8724,2.84375 2.49739,2.84375 2.49739,7.875 0,5.01302 -2.49739,7.874999 -2.4974,2.84375 -6.8724,2.84375 -4.39323,0 -6.89062,-2.84375 -2.47917,-2.861979 -2.47917,-7.874999 0,-5.03125 2.47917,-7.875 2.49739,-2.84375 6.89062,-2.84375 z"
           id="path972"
           inkscape:connector-curvature="0"
           style="fill:#c13357;fill-opacity:1" />
        <path
           d="m 232.21224,41.977864 q 0,-3.700521 -1.53125,-5.796875 -1.51302,-2.114583 -4.17448,-2.114583 -2.66146,0 -4.19271,2.114583 -1.51302,2.096354 -1.51302,5.796875 0,3.70052 1.51302,5.815104 1.53125,2.096354 4.19271,2.096354 2.66146,0 4.17448,-2.096354 1.53125,-2.114584 1.53125,-5.815104 z M 220.80078,34.85026 q 1.05729,-1.822917 2.66146,-2.697917 1.62239,-0.893229 3.86458,-0.893229 3.71875,0 6.03385,2.953125 2.33334,2.953125 2.33334,7.765625 0,4.8125 -2.33334,7.765624 -2.3151,2.953125 -6.03385,2.953125 -2.24219,0 -3.86458,-0.875 -1.60417,-0.893229 -2.66146,-2.716145 v 3.062499 h -3.3724 V 23.803385 h 3.3724 z"
           id="path974"
           inkscape:connector-curvature="0"
           style="fill:#c13357;fill-opacity:1" />
        <path
           d="m 250.53255,41.904947 q -4.06511,0 -5.63282,0.929687 -1.5677,0.929688 -1.5677,3.171875 0,1.786459 1.16666,2.84375 1.1849,1.039063 3.20834,1.039063 2.78906,0 4.46614,-1.96875 1.69531,-1.986979 1.69531,-5.268229 v -0.747396 z m 6.6901,-1.385417 v 11.648437 h -3.35417 v -3.098958 q -1.14843,1.859375 -2.86198,2.752604 -1.71354,0.875 -4.1927,0.875 -3.13542,0 -4.99479,-1.75 -1.84115,-1.768229 -1.84115,-4.721354 0,-3.445312 2.29687,-5.195312 2.31511,-1.75 6.89063,-1.75 h 4.70312 v -0.328125 q 0,-2.315104 -1.53125,-3.572916 -1.51302,-1.276042 -4.26562,-1.276042 -1.75,0 -3.40885,0.419271 -1.65886,0.419271 -3.19011,1.257812 v -3.098958 q 1.84115,-0.710937 3.57292,-1.057292 1.73177,-0.364583 3.37239,-0.364583 4.42969,0 6.61719,2.296875 2.1875,2.296875 2.1875,6.963541 z"
           id="path976"
           inkscape:connector-curvature="0"
           style="fill:#c13357;fill-opacity:1" />
        <path
           d="m 264.14973,23.803385 h 3.35417 v 28.364582 h -3.35417 z"
           id="path978"
           inkscape:connector-curvature="0"
           style="fill:#c13357;fill-opacity:1" />
      </g>
      <path
         inkscape:connector-curvature="0"
         id="path936"
         d="m 184.38757,158.58259 v 9.89077 h 9.89075 v 3.0187 h -9.89075 v 9.89074 h -2.9832 v -9.89074 h -9.89076 v -3.0187 h 9.89076 v -9.89077 z"
         style="font-style:normal;font-variant:normal;font-weight:normal;font-stretch:normal;font-size:37.33333206px;line-height:1.25;font-family:sans-serif;-inkscape-font-specification:'sans-serif, Normal';font-variant-ligatures:normal;font-variant-caps:normal;font-variant-numeric:normal;font-feature-settings:normal;text-align:start;letter-spacing:0px;word-spacing:0px;writing-mode:lr-tb;text-anchor:start;fill:#c13357;fill-opacity:1;stroke:none;stroke-width:0.97410858" />
      <g
         style="fill:#c13357;fill-opacity:1"
         id="g1419"
         transform="matrix(1.1352319,0,0,1.1352319,149.20331,-144.42481)">
        <path
           inkscape:connector-curvature="0"
           id="path938"
           d="m 65.040087,266.51213 v 3.33172 q -1.595478,-1.48598 -3.409936,-2.22115 -1.798815,-0.73517 -3.832269,-0.73517 -4.00432,0 -6.131621,2.45578 -2.127301,2.44014 -2.127301,7.07014 0,4.61436 2.127301,7.07014 2.127301,2.44013 6.131621,2.44013 2.033454,0 3.832269,-0.73517 1.814458,-0.73517 3.409936,-2.22115 v 3.30044 q -1.65804,1.12622 -3.519425,1.68933 -1.845752,0.56311 -3.910482,0.56311 -5.302598,0 -8.35277,-3.23787 -3.050173,-3.25352 -3.050173,-8.86896 0,-5.63109 3.050173,-8.86896 3.050172,-3.25351 8.35277,-3.25351 2.096016,0 3.941758,0.56311 1.861386,0.54746 3.488149,1.65804 z"
           style="font-style:normal;font-variant:normal;font-weight:normal;font-stretch:normal;font-size:37.33333206px;line-height:1.25;font-family:sans-serif;-inkscape-font-specification:'sans-serif, Normal';font-variant-ligatures:normal;font-variant-caps:normal;font-variant-numeric:normal;font-feature-settings:normal;text-align:start;letter-spacing:0px;word-spacing:0px;writing-mode:lr-tb;text-anchor:start;fill:#c13357;fill-opacity:1;stroke:none;stroke-width:0.8580699" />
        <path
           inkscape:connector-curvature="0"
           id="path940"
           d="m 84.389109,277.49274 v 10.57392 h -2.878104 v -10.48007 q 0,-2.48706 -0.969799,-3.72277 -0.9698,-1.23571 -2.909398,-1.23571 -2.330638,0 -3.675843,1.48598 -1.345205,1.48598 -1.345205,4.05125 v 9.90132 h -2.893746 v -24.33879 h 2.893746 v 9.54156 q 1.03237,-1.57983 2.424494,-2.36193 1.407775,-0.78209 3.237875,-0.78209 3.018888,0 4.567438,1.87702 1.548542,1.86139 1.548542,5.49031 z"
           style="font-style:normal;font-variant:normal;font-weight:normal;font-stretch:normal;font-size:37.33333206px;line-height:1.25;font-family:sans-serif;-inkscape-font-specification:'sans-serif, Normal';font-variant-ligatures:normal;font-variant-caps:normal;font-variant-numeric:normal;font-feature-settings:normal;text-align:start;letter-spacing:0px;word-spacing:0px;writing-mode:lr-tb;text-anchor:start;fill:#c13357;fill-opacity:1;stroke:none;stroke-width:0.8580699" />
        <path
           inkscape:connector-curvature="0"
           id="path942"
           d="m 105.14591,278.58767 v 1.40777 H 91.912871 q 0.187703,2.97196 1.783173,4.53615 1.61112,1.54855 4.47359,1.54855 1.65804,0 3.206586,-0.40669 1.56419,-0.40669 3.0971,-1.22007 v 2.72169 q -1.54855,0.65696 -3.17531,1.00109 -1.626754,0.34412 -3.300445,0.34412 -4.192023,0 -6.647802,-2.44014 -2.440136,-2.44013 -2.440136,-6.60088 0,-4.30152 2.315004,-6.81987 2.330638,-2.53398 6.272396,-2.53398 3.535073,0 5.584153,2.28371 2.06473,2.26808 2.06473,6.17855 z m -2.8781,-0.84466 q -0.0313,-2.36193 -1.32956,-3.7697 -1.282636,-1.40777 -3.409937,-1.40777 -2.408851,0 -3.863546,1.36085 -1.43906,1.36084 -1.658048,3.83226 z"
           style="font-style:normal;font-variant:normal;font-weight:normal;font-stretch:normal;font-size:37.33333206px;line-height:1.25;font-family:sans-serif;-inkscape-font-specification:'sans-serif, Normal';font-variant-ligatures:normal;font-variant-caps:normal;font-variant-numeric:normal;font-feature-settings:normal;text-align:start;letter-spacing:0px;word-spacing:0px;writing-mode:lr-tb;text-anchor:start;fill:#c13357;fill-opacity:1;stroke:none;stroke-width:0.8580699" />
        <path
           inkscape:connector-curvature="0"
           id="path944"
           d="m 121.03809,271.06392 v 2.72169 q -1.22007,-0.62568 -2.53399,-0.93851 -1.31392,-0.31284 -2.72169,-0.31284 -2.14294,0 -3.22223,0.65696 -1.06365,0.65696 -1.06365,1.97088 0,1.00108 0.76646,1.57983 0.76644,0.56311 3.08145,1.07929 l 0.98544,0.21899 q 3.0658,0.65696 4.34845,1.86138 1.29827,1.18879 1.29827,3.33173 0,2.44013 -1.93959,3.86355 -1.92396,1.42341 -5.30261,1.42341 -1.40777,0 -2.94068,-0.28156 -1.51726,-0.26591 -3.20659,-0.81337 v -2.97197 q 1.59548,0.82903 3.14402,1.25136 1.54855,0.40669 3.06582,0.40669 2.03345,0 3.12838,-0.68825 1.09493,-0.70388 1.09493,-1.97088 0,-1.17314 -0.79773,-1.79882 -0.7821,-0.62567 -3.45687,-1.20442 l -1.00107,-0.23463 q -2.67477,-0.56311 -3.86356,-1.72061 -1.18878,-1.17314 -1.18878,-3.20659 0,-2.47142 1.75189,-3.81662 1.7519,-1.3452 4.97413,-1.3452 1.59547,0 3.00325,0.23462 1.40776,0.23463 2.59655,0.70389 z"
           style="font-style:normal;font-variant:normal;font-weight:normal;font-stretch:normal;font-size:37.33333206px;line-height:1.25;font-family:sans-serif;-inkscape-font-specification:'sans-serif, Normal';font-variant-ligatures:normal;font-variant-caps:normal;font-variant-numeric:normal;font-feature-settings:normal;text-align:start;letter-spacing:0px;word-spacing:0px;writing-mode:lr-tb;text-anchor:start;fill:#c13357;fill-opacity:1;stroke:none;stroke-width:0.8580699" />
      </g>
    </g>
  </g>
</svg>
